<?xml version="1.0" encoding="utf-8"?>
<!-- Generator: Adobe Illustrator 15.0.2, SVG Export Plug-In . SVG Version: 6.00 Build 0)  -->
<!DOCTYPE svg PUBLIC "-//W3C//DTD SVG 1.1//EN" "http://www.w3.org/Graphics/SVG/1.1/DTD/svg11.dtd">
<svg version="1.1" id="Camada_1" xmlns="http://www.w3.org/2000/svg" xmlns:xlink="http://www.w3.org/1999/xlink" x="0px" y="0px"
	 width="60px" height="80px" viewBox="0 0 60 80" enable-background="new 0 0 60 80" xml:space="preserve">
<g>
	<path fill="#525358" d="M50.911,28.073c-0.288-0.657,0.146-1.406,0.271-1.832c0.193-0.647,0.193-1.105-0.102-1.121
		c-0.2-0.012-0.434,0.148-0.58,0.37c-0.07,0.107-0.105,0.121-0.068-0.051c0.131-0.584,0.457-1.449,1.305-1.135
		c0.718,0.268,0.404,1.28,0.154,1.773c-0.203,0.392-0.813,1.104-0.705,1.745c0.108,0.668,1.459,0.615,2.645,1.113
		c1.232,0.52,1.679,1.659,2.559,1.786c0.059,0,0.117-0.005,0.178-0.013c0.006-0.001,0.02-0.006,0.031-0.008
		c0.043-0.008,0.088-0.021,0.135-0.035c0.013-0.001,0.023-0.011,0.033-0.017c0.041-0.016,0.082-0.031,0.119-0.049
		c0.023-0.013,0.045-0.029,0.066-0.04c0.027-0.018,0.053-0.032,0.082-0.05c0.031-0.025,0.068-0.051,0.102-0.078
		c0.014-0.01,0.027-0.018,0.036-0.026c0.499-0.423,0.815-1.147,0.983-1.504c0.652-1.397,1.193-2.728,1.498-4.164
		c0.412-1.974,0.451-4.062,0.149-5.939c-0.366-2.312-1.452-4.47-2.872-6.483c-1.531-2.164-3.783-3.917-6.688-5.205
		c-2.197-0.975-4.791-1.688-7.713-2.128c-0.438-0.069-0.87-0.123-1.297-0.172c-0.235-0.029-0.467-0.051-0.7-0.077
		c-0.173-0.02-0.353-0.037-0.524-0.056c-0.326-0.031-0.645-0.053-0.96-0.075c-0.062-0.003-0.121-0.009-0.183-0.013
		c-0.357-0.022-0.708-0.045-1.049-0.059h-0.022c-0.097,0.11-0.647,1.27-0.733,2.011c-0.08,0.696-0.272,2.533-0.992,2.88
		c-0.946,0.459-1.414,0.025-1.881-0.197c-0.291-0.137-0.854-0.269-1.076-0.012c-0.334,0.381,0.055,0.795,0.246,0.958
		c-0.59,0.084-1.137-1.162-0.545-1.653c0.379-0.312,0.756-0.216,1.734,0.434c1.012,0.664,1.42,0.15,1.566-0.14
		c0.406-0.802,0.578-2.545,0.691-3.292c0.113-0.751,0.901-1.501,1.047-2.377c0.008-0.07,0.021-0.146,0.021-0.206
		c0-0.655-0.483-1.013-0.651-1.134C35.331,0.47,31.534,0,30,0c-1.401,0-5.326,0.47-7.214,1.8c-0.173,0.122-0.656,0.479-0.656,1.135
		c0,0.055,0.011,0.134,0.021,0.206c0.145,0.876,0.932,1.626,1.047,2.376c0.111,0.748,0.283,2.49,0.691,3.293
		c0.15,0.291,0.557,0.803,1.566,0.14c0.979-0.647,1.357-0.745,1.732-0.435c0.594,0.492,0.047,1.736-0.544,1.653
		c0.192-0.163,0.581-0.577,0.25-0.958c-0.226-0.257-0.788-0.126-1.076,0.012c-0.469,0.223-0.938,0.655-1.884,0.197
		c-0.714-0.348-0.912-2.186-0.991-2.88c-0.084-0.741-0.64-1.901-0.735-2.011c-0.349,0.014-0.707,0.035-1.082,0.06
		c-0.035,0.003-0.071,0.005-0.107,0.009c-0.336,0.021-0.678,0.048-1.029,0.078c-0.159,0.018-0.32,0.037-0.478,0.053
		c-0.246,0.022-0.491,0.046-0.744,0.08c-0.426,0.05-0.856,0.104-1.294,0.173C14.55,5.42,11.958,6.135,9.76,7.109
		c-2.904,1.289-5.157,3.04-6.69,5.205c-1.421,2.014-2.504,4.17-2.873,6.484c-0.301,1.874-0.262,3.964,0.152,5.936
		c0.301,1.435,0.837,2.768,1.498,4.163C2.094,29.413,2.66,30.72,3.62,30.72c0.878-0.128,1.318-1.267,2.553-1.788
		c1.185-0.498,2.535-0.443,2.648-1.113c0.104-0.641-0.509-1.352-0.708-1.744c-0.252-0.495-0.561-1.507,0.154-1.774
		c0.848-0.313,1.171,0.552,1.302,1.134c0.037,0.174,0.003,0.16-0.07,0.053c-0.147-0.221-0.379-0.381-0.577-0.368
		c-0.299,0.014-0.299,0.474-0.101,1.121c0.126,0.426,0.56,1.175,0.272,1.832c-0.269,0.613-1.378,0.562-2.554,1.217
		c-1.077,0.6-1.699,1.289-2.458,1.64c-0.026,0.574-0.127,1.121-0.326,1.603c0.081,0.075,0.324,0.226,0.531,0.345
		c0.246,0.151,0.499,0.301,0.688,0.447c0.213,0.165,0.368,0.347,0.272,0.974c-0.091,0.571-0.631,1.059-1.056,0.862
		c-0.232-0.102-0.419-0.202-0.498-0.237c-0.116-0.018-0.226-0.024-0.25-0.003c-0.043,0.034-0.013,0.101,0.085,0.163
		c0.091,0.062,0.466,0.448,0.568,0.484c0.101,0.034-0.16,0.443,0.237,0.971c-0.374,0.085-1.227-0.435-0.966-1.681
		c0.261-1.243,1.08-0.667,0.933-0.229c-0.033,0.099-0.07,0.171-0.102,0.228c0.075,0.091,0.223,0.147,0.382,0.04
		c0.111-0.075,0.311-0.288,0.386-0.681c0.051-0.279-0.095-0.543-0.197-0.616c-0.171-0.134-0.416-0.284-0.653-0.424
		c-0.212-0.128-0.37-0.243-0.505-0.339c-0.003,0-0.005,0-0.006,0c-0.376-0.313-0.76-0.449-1.105-0.449
		c-0.974,0-1.682,1.043-1.272,2.078c0.23,0.574,1.014,0.754,1.416,1.134c0.513,0.483,0.586,1.112,1.505,1.296
		c0.052,0.011,0.103,0.017,0.154,0.017c0.895,0,1.609-1.586,1.897-2.854l0.009,0.004c-0.131,0.505-0.259,1.093-0.362,1.738
		c-0.139,0.867-0.159,1.713-0.062,2.508c0.12,0.984,0.28,1.91,0.753,2.75c0.271,0.486,0.78,0.783,1.328,0.783
		c0.027,0,0.055,0,0.083-0.006l1.069-0.249c0.6-0.028,1.022,0.089,1.393-0.794c0.039-0.091,0.213-0.572,0.269-1.203
		c0.007-0.095,0.018-0.188,0.022-0.281c0.003-0.057,0.008-0.104,0.009-0.153c0.005-0.047,0.007-0.087,0.009-0.126
		c0.001-0.062,0.003-0.127,0.003-0.188c0-0.027-0.001-0.053-0.001-0.078c-0.001-0.069-0.005-0.135-0.012-0.199
		c-0.001-0.012-0.005-0.027-0.005-0.043c-0.04-0.301-0.145-0.554-0.379-0.696c-0.099-0.053-0.346-0.159-0.621-0.101
		c-0.022,0.006-0.041,0.016-0.062,0.019c-0.012,0.004-0.021,0.007-0.033,0.01c-0.04,0.013-0.078,0.031-0.118,0.054
		c-0.459,0.269-0.722,1.379-0.36,2.279c0.043,0.104,0.604-0.015,0.506-0.139c-0.049-0.067-0.434-0.653-0.223-1.367
		c0.103-0.336,0.309-0.707,0.667-0.478c0.368,0.232,0.353,0.997,0.284,0.979c-0.069-0.013-0.112-0.308-0.368-0.114
		c-0.189,0.136-0.189,0.609-0.141,0.852c0.043,0.241,0.125,0.37,0.022,0.383C9.775,40.22,9.25,40.325,9.27,40.368
		c0.05,0.142,0.301,0.095,0.459,0.069c0.159-0.019,0.102,0.192,0.203,0.227c0.102,0.033,0.128-0.176,0.208-0.165
		c0.081,0.008,0.031,0.129-0.016,0.278c-0.045,0.146-0.117,0.226-0.415,0.191c-0.466-0.054-1.003-0.078-1.084-3.481v-0.005v-0.009
		c0-0.092,0.006-0.18,0.009-0.271c0.003-0.096,0.006-0.194,0.016-0.292c0.007-0.087,0.017-0.171,0.029-0.259
		c0.014-0.112,0.029-0.218,0.045-0.328c0.011-0.067,0.022-0.131,0.034-0.192c0.034-0.178,0.072-0.347,0.113-0.509
		c0.048-0.19,0.103-0.373,0.155-0.549l0.013,0.007c0.117-0.308,0.485-1.348,0.469-1.391c1.174-3.938,0.745-6.843,0.597-7.639
		c-0.021-0.105-0.04-0.207-0.067-0.317c-0.176-0.746-0.53-1.555-1.192-1.797H8.833C8.475,23.862,7.655,23.954,7.35,24.6
		c-0.457,0.979,0.407,2.198,0.508,2.391c0.059,0.108,0.109,0.223,0.07,0.233c-0.334,0.104-1.183-1.762-1.483-2.818
		c-0.75-2.501-0.833-5.604,1.33-8.669c2.197-3.108,6.948-4.404,10.548-4.948c2.374-0.355,4.619-0.444,6.252-0.444
		c0.397,0,0.756,0.009,1.072,0.015c0.22,0.001,0.456,0.021,0.691,0.021c0.062,0,0.125-0.004,0.185-0.006
		c0.686-0.054,1.166-0.701,1.166-1.489c0-0.826-0.534-1.351-1.253-1.487c-1.223-0.237-1.963,0.8-1.887,1.126
		c0.045,0.202,0.158,0.323,0.418,0.312c0.096-0.003,0.065,0.226-0.248,0.2c-0.406-0.032-0.668-0.281-0.668-0.694
		c0.008-0.678,1.292-1.271,2.863-1.777c0.275-0.091,0.547-0.165,0.803-0.224c1.175-0.278,2.084-0.28,2.285-0.28
		c0.205,0,1.116,0.001,2.291,0.28c0.255,0.059,0.523,0.133,0.805,0.224c1.567,0.507,2.854,1.099,2.857,1.776
		c0,0.413-0.264,0.663-0.665,0.694c-0.312,0.024-0.345-0.203-0.247-0.2c0.262,0.011,0.372-0.11,0.42-0.312
		c0.072-0.328-0.665-1.363-1.889-1.128c-0.721,0.137-1.258,0.663-1.258,1.487c0,0.79,0.484,1.437,1.166,1.49
		c0.062,0.002,0.123,0.006,0.186,0.006c0.236,0,0.477-0.02,0.691-0.023c0.314-0.006,0.678-0.015,1.072-0.015
		c1.633,0,3.879,0.086,6.25,0.444c3.604,0.543,8.352,1.84,10.547,4.95c2.162,3.064,2.078,6.168,1.332,8.669
		c-0.306,1.058-1.148,2.923-1.483,2.816c-0.044-0.012,0.013-0.125,0.067-0.234c0.104-0.192,0.969-1.41,0.506-2.391
		c-0.301-0.645-1.118-0.737-1.479-0.661c-0.665,0.237-1.021,1.053-1.194,1.8c-0.023,0.109-0.045,0.211-0.062,0.317
		c-0.146,0.794-0.578,3.701,0.594,7.638c-0.016,0.043,0.354,1.084,0.469,1.392l0.018-0.008c0.05,0.176,0.104,0.358,0.15,0.549
		c0.041,0.164,0.078,0.333,0.113,0.506c0.012,0.064,0.023,0.129,0.034,0.195c0.017,0.11,0.032,0.215,0.045,0.33
		c0.011,0.086,0.021,0.168,0.03,0.254c0.006,0.106,0.009,0.206,0.016,0.312c0,0.086,0.006,0.166,0.006,0.255v0.007l0.004,0.013
		c-0.084,3.4-0.623,3.43-1.092,3.479c-0.292,0.033-0.365-0.045-0.408-0.191c-0.047-0.149-0.096-0.27-0.018-0.277
		c0.082-0.013,0.102,0.198,0.209,0.165c0.1-0.032,0.042-0.246,0.203-0.228c0.158,0.024,0.404,0.071,0.459-0.069
		c0.018-0.043-0.508-0.148-0.609-0.165c-0.102-0.013-0.023-0.143,0.021-0.384c0.047-0.242,0.047-0.716-0.142-0.852
		c-0.256-0.194-0.3,0.101-0.367,0.114c-0.068,0.017-0.086-0.75,0.283-0.98c0.356-0.229,0.565,0.141,0.666,0.479
		c0.213,0.713-0.173,1.299-0.223,1.366c-0.1,0.126,0.463,0.243,0.505,0.139c0.364-0.897,0.099-2.009-0.358-2.276
		c-0.041-0.024-0.084-0.042-0.123-0.056c-0.03-0.012-0.062-0.02-0.094-0.027c-0.275-0.058-0.522,0.047-0.623,0.101
		c-0.236,0.142-0.341,0.4-0.377,0.708L49.3,38.556c-0.009,0.077-0.012,0.15-0.016,0.222v0.048c0,0.074,0,0.147,0.004,0.221
		c0.003,0.02,0.003,0.039,0.003,0.061c0.009,0.16,0.021,0.32,0.037,0.49c0.057,0.63,0.23,1.11,0.27,1.203
		c0.371,0.885,0.793,0.768,1.391,0.795l1.072,0.248c0.024,0.006,0.053,0.006,0.08,0.006c0.551,0,1.057-0.297,1.33-0.781
		c0.471-0.842,0.633-1.769,0.752-2.751c0.1-0.794,0.077-1.64-0.062-2.509c-0.099-0.646-0.229-1.233-0.359-1.737l0.011-0.006
		c0.287,1.269,1.006,2.854,1.896,2.854c0.054,0,0.103-0.008,0.151-0.019c0.92-0.185,0.996-0.811,1.504-1.296
		c0.4-0.382,1.188-0.56,1.419-1.136c0.409-1.034-0.302-2.077-1.271-2.077c-0.352,0-0.732,0.136-1.104,0.449
		c-0.005,0-0.009-0.001-0.011-0.001c-0.139,0.096-0.293,0.212-0.506,0.339c-0.233,0.142-0.479,0.29-0.652,0.424
		c-0.104,0.075-0.245,0.339-0.192,0.616c0.072,0.395,0.271,0.605,0.386,0.683c0.158,0.105,0.311,0.05,0.381-0.042
		c-0.033-0.056-0.066-0.128-0.104-0.228c-0.146-0.439,0.669-1.016,0.933,0.229c0.264,1.246-0.592,1.767-0.967,1.683
		c0.396-0.527,0.137-0.938,0.237-0.973c0.101-0.035,0.476-0.422,0.567-0.484c0.094-0.062,0.127-0.128,0.082-0.162
		c-0.021-0.021-0.131-0.015-0.248,0.003c-0.074,0.034-0.269,0.133-0.498,0.237c-0.424,0.195-0.967-0.292-1.055-0.863
		c-0.099-0.629,0.057-0.812,0.271-0.976c0.188-0.146,0.438-0.296,0.685-0.447c0.209-0.12,0.453-0.271,0.534-0.347
		c-0.203-0.482-0.303-1.029-0.326-1.603c-0.765-0.351-1.382-1.04-2.458-1.64C52.289,28.634,51.18,28.687,50.911,28.073"/>
	<line fill="none" x1="37.964" y1="63.197" x2="37.311" y2="63.197"/>
	<line fill="none" x1="22.749" y1="63.197" x2="22.039" y2="63.197"/>
	<path fill="#525358" d="M31.053,46.2v-1.14c0-0.1,0.078-0.17,0.168-0.17h1.121c0.047,0,0.088,0.016,0.116,0.045l1.282,1.258v-4.746
		l-1.282,1.259c-0.03,0.032-0.069,0.047-0.116,0.047h-1.121c-0.095,0-0.168-0.075-0.168-0.167v-1.139
		c0-0.047,0.018-0.088,0.049-0.119l1.237-1.302h-4.673l1.235,1.302c0.031,0.031,0.045,0.072,0.045,0.119v1.139
		c0,0.094-0.074,0.167-0.168,0.167h-1.123c-0.042,0-0.083-0.017-0.113-0.047l-1.285-1.259v4.746l1.285-1.258
		c0.03-0.033,0.071-0.045,0.113-0.045h1.123c0.096,0,0.168,0.07,0.168,0.17v1.14c0,0.044-0.016,0.084-0.045,0.114l-1.235,1.301
		h4.673l-1.237-1.301C31.068,46.284,31.053,46.244,31.053,46.2 M30.527,46.104c0,0.094-0.075,0.168-0.167,0.168h-0.653
		c-0.091,0-0.166-0.076-0.166-0.168v-1.726h-1.783c-0.094,0-0.168-0.078-0.168-0.17v-0.655c0-0.1,0.078-0.172,0.168-0.172h1.783
		v-1.839c0-0.092,0.075-0.17,0.166-0.17h0.653c0.091,0,0.166,0.078,0.166,0.17v1.839h1.721c0.096,0,0.167,0.074,0.167,0.172v0.655
		c0,0.095-0.073,0.17-0.167,0.17h-1.719V46.104L30.527,46.104z"/>
	<path fill="#525358" d="M32.339,40.026L31.1,41.328c-0.031,0.031-0.047,0.072-0.047,0.119v1.139c0,0.094,0.078,0.167,0.168,0.167
		h1.121c0.047,0,0.088-0.017,0.117-0.047l1.279-1.259v4.746l-1.279-1.258c-0.029-0.033-0.07-0.045-0.117-0.045h-1.121
		c-0.095,0-0.168,0.07-0.168,0.17v1.14c0,0.044,0.018,0.084,0.047,0.114l1.239,1.301h-4.673l1.235-1.301
		c0.029-0.03,0.045-0.07,0.045-0.114v-1.14c0-0.1-0.075-0.17-0.166-0.17h-1.122c-0.042,0-0.084,0.016-0.114,0.045l-1.284,1.258
		v-4.746l1.284,1.259c0.03,0.032,0.07,0.047,0.114,0.047h1.122c0.092,0,0.166-0.075,0.166-0.167v-1.139
		c0-0.047-0.018-0.088-0.045-0.119l-1.235-1.302H32.339 M29.539,43.378h-1.783c-0.095,0-0.168,0.075-0.168,0.172v0.659
		c0,0.091,0.076,0.169,0.168,0.169h1.783v1.726c0,0.094,0.075,0.168,0.167,0.168h0.65c0.093,0,0.167-0.076,0.167-0.168v-1.726h1.722
		c0.094,0,0.167-0.078,0.167-0.169V43.55c0-0.1-0.073-0.172-0.167-0.172h-1.722v-1.837c0-0.094-0.077-0.169-0.167-0.169h-0.65
		c-0.092,0-0.167,0.078-0.167,0.169V43.378 M32.734,39.854h-5.468l1.511,1.593v1.139h-1.12l-1.566-1.539V46.6l1.566-1.537h1.12
		v1.141l-1.511,1.588h5.468l-1.517-1.588v-1.141h1.122l1.564,1.537v-5.553l-1.564,1.539h-1.119v-1.139L32.734,39.854z
		 M27.755,44.209V43.55h1.951v-2.009h0.651v2.009h1.89v0.659h-1.89v1.895h-0.651v-1.895H27.755z"/>
	<path fill="#525358" d="M48.639,36.091l-0.646-0.675H47.99c-0.004-0.002-0.004-0.002-0.008-0.002
		c-0.028-0.028-0.063-0.037-0.102-0.043c-0.008,0-0.01-0.003-0.016-0.003H12.134c-0.043,0-0.088,0.017-0.117,0.046
		c-0.034,0.032-0.051,0.076-0.051,0.124v25.487c0,5.117,2.088,9.75,5.437,13.078C20.699,77.727,25.421,80,30.648,80
		c9.947,0,18.037-8.211,18.037-18.303V36.211C48.686,36.167,48.669,36.126,48.639,36.091 M13,36.392h34.303v0.333V50.76H13V36.392z
		 M21.556,76.791c-0.259-0.146-0.519-0.294-0.771-0.449c0.109,0.021,0.21,0.039,0.306,0.066c0.248,0.056,0.504,0.117,1.007,0.117
		c0.502,0,0.763-0.062,1.008-0.117c0.244-0.062,0.477-0.117,0.952-0.117s0.709,0.059,0.953,0.117
		c0.022,0.003,0.04,0.011,0.061,0.014c0.008,0.128,0.023,0.252,0.055,0.372c-0.125-0.019-0.261-0.03-0.44-0.03
		c-0.458,0-0.692,0.064-0.918,0.127c-0.218,0.057-0.427,0.115-0.854,0.115c-0.427,0-0.634-0.061-0.853-0.115
		C21.912,76.85,21.76,76.812,21.556,76.791 M31.253,68.572c-0.114,0.078-0.221,0.164-0.325,0.253
		c-0.099,0.081-0.186,0.163-0.273,0.247c-0.172,0.164-0.334,0.342-0.476,0.529c-0.1,0.135-0.192,0.271-0.278,0.414
		c-0.746,1.26-0.512,3.01,0.15,4.144c-0.744-0.25-1.541-0.375-2.37-0.375c-0.795,0-1.401,0.118-1.667,0.179
		c0.005-0.619,0.183-3.125,2.64-5.025c0.27-0.074,0.531-0.138,0.783-0.188c0.01-0.003,0.018-0.003,0.028-0.003
		C30.122,68.611,30.725,68.547,31.253,68.572 M30.177,67.439c-0.387-0.611-0.178-1.117,0-1.414V67.439z M34.466,67.828
		c0.062,0.072,0.138,0.166,0.157,0.209c0.104,0.221-0.036,0.494-0.225,0.635c-0.185,0.146-0.44,0.166-0.666,0.047
		c-0.021-0.019-0.051-0.021-0.078-0.013c-0.039,0.013-0.062,0.058-0.055,0.097c0.06,0.25-0.023,0.508-0.216,0.656
		c-0.186,0.143-0.446,0.16-0.667,0.041c-0.021-0.014-0.054-0.021-0.078-0.01c-0.043,0.016-0.062,0.055-0.058,0.098
		c0.06,0.25-0.024,0.506-0.216,0.652c-0.098,0.072-0.211,0.113-0.328,0.121c-0.003,0-0.012,0-0.018,0
		c-0.104,0.004-0.222-0.021-0.32-0.074c-0.024-0.02-0.057-0.023-0.088-0.01c-0.034,0.014-0.055,0.056-0.047,0.095
		c0.06,0.253-0.022,0.508-0.217,0.653c-0.024,0.019-0.054,0.033-0.084,0.045c-0.043,0.025-0.088,0.045-0.135,0.053
		c-0.003,0-0.01,0-0.013,0.004c-0.044,0.01-0.089,0.02-0.13,0.02c-0.021,0-0.039-0.004-0.055-0.008
		c-0.035-0.002-0.065-0.006-0.099-0.012c-0.058-0.012-0.106-0.033-0.158-0.061c-0.022-0.019-0.06-0.022-0.089-0.002
		c-0.031,0.02-0.048,0.056-0.04,0.095c0.06,0.245-0.026,0.505-0.217,0.651c-0.108,0.082-0.243,0.119-0.381,0.111
		c-0.019,0-0.033,0-0.05-0.004c-0.078-0.008-0.154-0.025-0.227-0.061c0-0.121,0.01-0.231,0.02-0.352l0.479-0.367l1.779-1.377
		L34.466,67.828z M31.954,69.467v-0.82c0.332,0.082,0.554,0.225,0.655,0.312L31.954,69.467z M33.922,72.775
		c-0.035,0.021-0.072,0.037-0.111,0.053h-0.002c-0.035,0.013-0.078,0.02-0.119,0.02c-0.072,0-0.15-0.017-0.217-0.056
		c-0.027-0.017-0.061-0.022-0.084-0.011c-0.039,0.014-0.061,0.057-0.053,0.099c0.034,0.167-0.027,0.343-0.158,0.437
		c-0.13,0.094-0.305,0.104-0.445,0.021c-0.026-0.021-0.051-0.025-0.078-0.021c-0.041,0.019-0.069,0.058-0.059,0.104
		c0.027,0.147-0.062,0.354-0.207,0.462c-0.031,0.021-0.065,0.031-0.105,0.041c-0.02,0.008-0.033,0.008-0.057,0.008
		c-0.021,0.004-0.041,0.006-0.062,0.006c-0.031-0.002-0.06-0.006-0.083-0.01c-0.012-0.004-0.02-0.004-0.025-0.006
		c-0.035-0.008-0.063-0.018-0.098-0.025c-0.025-0.015-0.055-0.022-0.068-0.035v-0.127l2.821-2.03
		c0.037,0.062,0.076,0.131,0.084,0.153c0.05,0.146,0.002,0.281-0.131,0.377c-0.127,0.096-0.304,0.104-0.448,0.021
		c-0.021-0.021-0.046-0.021-0.074-0.021c-0.043,0.017-0.07,0.061-0.062,0.103C34.109,72.503,34.053,72.675,33.922,72.775
		 M34.417,74.537c-0.247,0.102-0.53,0.195-0.834,0.263l-0.004-1.731L34.417,74.537z M32.938,73.557c0.109,0,0.217-0.027,0.309-0.088
		l0.003,1.396c-0.196,0.031-0.396,0.051-0.604,0.051c-0.176,0-0.344-0.02-0.51-0.044L32.938,73.557z M31.954,74.713v-0.637
		c0.069,0.023,0.142,0.033,0.21,0.033c0.062,0,0.118-0.006,0.175-0.021L31.954,74.713z M31.954,73.387v-2.855
		c0.062,0.007,0.122,0.004,0.179-0.006l1.104,1.938L31.954,73.387z M30.643,74.467c0-0.406,0-0.801,0-1.173l0.811-2.128l0.005-0.004
		c0.065-0.051,0.12-0.118,0.167-0.189v4.137L30.643,74.467z M31.62,75.393v0.146c-0.166,0.146-0.453,0.22-0.892,0.22
		c-0.028,0-0.062-0.003-0.092-0.006c0-0.348,0-0.677,0.002-0.997L31.62,75.393z M30.643,72.727c0-0.367,0.004-0.701,0.004-1.033
		c0.063-0.127,0.101-0.271,0.096-0.414c0.146,0.043,0.302,0.043,0.447,0.01L30.643,72.727z M30.177,74.525v1.195
		c-0.146-0.02-0.286-0.027-0.437-0.049L30.177,74.525z M29.535,75.65c-0.087-0.016-0.173-0.025-0.259-0.037l-0.068-0.01
		c-0.148-0.021-0.284-0.035-0.406-0.051c-0.872-0.109-1.005-0.13-1.419-0.824c-0.153-0.258-0.574-0.437-1.055-0.584
		c0.311-0.056,0.779-0.117,1.352-0.117c0.816,0,1.598,0.132,2.327,0.379L29.535,75.65z M30.177,72.07v1.82
		c-0.274-0.531-0.452-1.187-0.483-1.849c0.095,0.034,0.187,0.062,0.283,0.062C30.046,72.104,30.112,72.091,30.177,72.07
		 M29.729,71.191c0.063-0.373,0.182-0.73,0.371-1.049c0.021-0.039,0.053-0.076,0.077-0.111v0.81L29.729,71.191z M31.62,69.727
		l-0.974,0.752c0-0.379,0-0.732,0-1.06c0.283-0.304,0.604-0.571,0.974-0.8V69.727z M27.181,74.85
		c0.476,0.801,0.713,0.83,1.591,0.939c0.125,0.02,0.256,0.033,0.405,0.052l0.068,0.009c0.503,0.07,1.026,0.146,1.487,0.146
		c0.129,0,0.246-0.012,0.357-0.021c0.078-0.012,0.146-0.021,0.215-0.039c0.021-0.006,0.049-0.012,0.069-0.016
		c0.082-0.025,0.151-0.05,0.216-0.086c0.008,0,0.012-0.003,0.014-0.006c0.066-0.031,0.129-0.072,0.183-0.119
		c0.024-0.021,0.056-0.04,0.077-0.064c0.044-0.053,0.068-0.113,0.098-0.178c0.02-0.042,0.034-0.089,0.047-0.134
		c0.014-0.073,0.031-0.147,0.031-0.229c0.195,0.033,0.402,0.051,0.609,0.051c1.139,0,2.16-0.498,2.619-0.764
		c-0.088,0.264-0.242,0.612-0.406,0.664c-0.041,0.016-0.074,0.059-0.079,0.104c-0.056,0.55-0.351,0.581-0.359,0.581
		c-0.03,0.002-0.062,0.021-0.081,0.041c-0.021,0.029-0.033,0.057-0.031,0.092c0.013,0.146,0.013,0.27,0.008,0.385v0.004
		c-0.016,0.301-0.082,0.52-0.164,0.682c-0.113,0.025-0.245,0.048-0.422,0.057c-0.058,0-0.119,0.007-0.19,0.007
		c-0.426,0-0.633-0.062-0.853-0.112c-0.228-0.062-0.459-0.129-0.916-0.129c-0.459,0-0.69,0.062-0.916,0.129
		c-0.223,0.055-0.426,0.112-0.854,0.112c-0.427,0-0.634-0.062-0.855-0.112c-0.226-0.062-0.455-0.129-0.916-0.129
		c-0.459,0-0.691,0.062-0.914,0.129c-0.22,0.055-0.43,0.112-0.855,0.112c-0.425,0-0.633-0.062-0.855-0.112
		c-0.067-0.023-0.14-0.037-0.215-0.059h0.004c-0.023-0.057-0.04-0.113-0.054-0.18c-0.027-0.133-0.033-0.279-0.033-0.432v-0.002
		c0-0.092,0.003-0.176,0.003-0.26c0.015-0.434,0.029-0.879-0.256-1.129c-0.456-0.398-0.381-0.79-0.306-0.977
		c0.231,0.143,0.61,0.248,1.04,0.373C26.361,74.4,27.023,74.591,27.181,74.85 M25.711,78.439c0.253,0.019,0.409,0.061,0.561,0.108
		c0.085,0.028,0.171,0.056,0.271,0.078C26.266,78.568,25.985,78.51,25.711,78.439 M30.001,78.98c-1.162,0-2.29-0.119-3.386-0.34
		c0.115,0.021,0.251,0.032,0.434,0.032c0.386,0,0.583-0.062,0.771-0.125c0.181-0.062,0.354-0.11,0.702-0.11
		c0.353,0,0.521,0.057,0.701,0.11c0.189,0.062,0.385,0.125,0.771,0.125c0.386,0,0.583-0.062,0.773-0.125
		c0.182-0.062,0.354-0.11,0.703-0.11c0.352,0,0.521,0.057,0.699,0.11c0.188,0.062,0.387,0.125,0.771,0.125
		c0.387,0,0.584-0.062,0.773-0.125c0.158-0.053,0.319-0.101,0.594-0.108C32.936,78.797,31.488,78.98,30.001,78.98 M34.971,78.258
		c-0.142-0.033-0.302-0.061-0.548-0.061c-0.387,0-0.581,0.064-0.771,0.125c-0.182,0.059-0.354,0.115-0.707,0.115
		c-0.35,0-0.516-0.059-0.697-0.115c-0.189-0.061-0.387-0.125-0.773-0.125c-0.389,0-0.582,0.064-0.772,0.125
		c-0.181,0.059-0.351,0.115-0.702,0.115s-0.521-0.059-0.702-0.115c-0.188-0.061-0.385-0.125-0.771-0.125
		c-0.384,0-0.583,0.064-0.771,0.125c-0.181,0.059-0.354,0.115-0.7,0.115c-0.353,0-0.522-0.059-0.705-0.115
		c-0.187-0.061-0.385-0.125-0.771-0.125c-0.234,0-0.395,0.027-0.53,0.053c-0.321-0.091-0.638-0.195-0.954-0.311
		c0.195-0.023,0.337-0.062,0.47-0.104c0.192-0.061,0.373-0.111,0.747-0.111s0.557,0.057,0.749,0.111
		c0.2,0.062,0.409,0.125,0.815,0.125c0.41,0,0.618-0.062,0.818-0.125c0.192-0.061,0.371-0.111,0.748-0.111
		c0.373,0,0.558,0.057,0.748,0.111c0.201,0.062,0.41,0.125,0.814,0.125c0.41,0,0.618-0.062,0.815-0.125
		c0.193-0.061,0.375-0.111,0.75-0.111s0.558,0.057,0.748,0.111c0.201,0.062,0.41,0.125,0.815,0.125c0.41,0,0.616-0.062,0.816-0.125
		c0.192-0.061,0.375-0.111,0.751-0.111c0.375,0,0.557,0.057,0.75,0.111c0.138,0.042,0.283,0.086,0.496,0.104
		C35.617,78.055,35.298,78.159,34.971,78.258 M36.547,77.706c-0.086,0.01-0.177,0.015-0.289,0.015c-0.375,0-0.561-0.055-0.75-0.109
		c-0.199-0.062-0.408-0.127-0.818-0.127s-0.617,0.062-0.815,0.127c-0.19,0.058-0.374,0.109-0.747,0.109
		c-0.375,0-0.559-0.055-0.752-0.109c-0.2-0.062-0.406-0.127-0.814-0.127s-0.615,0.062-0.814,0.127
		c-0.194,0.058-0.375,0.109-0.75,0.109c-0.371,0-0.554-0.055-0.747-0.109c-0.2-0.062-0.408-0.127-0.815-0.127
		c-0.406,0-0.617,0.062-0.816,0.127c-0.19,0.058-0.373,0.109-0.749,0.109s-0.556-0.055-0.745-0.109
		c-0.204-0.062-0.41-0.127-0.819-0.127c-0.409,0-0.616,0.062-0.816,0.127c-0.191,0.058-0.374,0.109-0.75,0.109
		c-0.116,0-0.206-0.005-0.292-0.015c-0.383-0.156-0.763-0.328-1.134-0.515c0.155,0.033,0.337,0.053,0.594,0.053
		c0.461,0,0.692-0.062,0.915-0.125c0.223-0.059,0.43-0.111,0.855-0.111c0.425,0,0.637,0.055,0.856,0.111
		c0.225,0.062,0.458,0.125,0.915,0.125c0.459,0,0.694-0.062,0.917-0.125c0.218-0.059,0.428-0.111,0.851-0.111
		c0.434,0,0.637,0.055,0.857,0.111c0.225,0.062,0.459,0.125,0.918,0.125c0.455,0,0.69-0.062,0.911-0.125
		c0.224-0.059,0.433-0.111,0.856-0.111c0.429,0,0.636,0.055,0.854,0.111c0.229,0.062,0.459,0.125,0.914,0.125
		c0.459,0,0.691-0.062,0.918-0.125c0.221-0.059,0.429-0.111,0.854-0.111c0.429,0,0.636,0.055,0.854,0.111
		c0.228,0.062,0.457,0.125,0.918,0.125c0.271,0,0.462-0.025,0.617-0.055C37.328,77.378,36.941,77.544,36.547,77.706 M38.479,76.786
		c-0.224,0.024-0.383,0.063-0.533,0.104c-0.221,0.055-0.428,0.113-0.854,0.113c-0.432,0-0.638-0.062-0.858-0.113
		c-0.226-0.062-0.455-0.129-0.916-0.129c-0.437,0-0.668,0.061-0.881,0.114c0.041-0.116,0.074-0.25,0.098-0.401
		c0.125-0.021,0.234-0.043,0.339-0.068c0.246-0.062,0.479-0.119,0.955-0.119c0.479,0,0.708,0.061,0.952,0.119
		c0.25,0.057,0.506,0.117,1.011,0.117c0.506,0,0.767-0.062,1.011-0.117c0.146-0.037,0.292-0.07,0.479-0.094
		C39.012,76.475,38.747,76.635,38.479,76.786 M39.469,75.975c-0.439,0.004-0.687,0.062-0.91,0.116
		c-0.235,0.06-0.463,0.109-0.929,0.109s-0.688-0.05-0.929-0.109c-0.239-0.062-0.489-0.122-0.979-0.122
		c-0.488,0-0.738,0.062-0.979,0.122c-0.079,0.019-0.16,0.034-0.251,0.054c0.003-0.084,0.003-0.17-0.004-0.264
		c0.145-0.056,0.379-0.215,0.443-0.688c0.358-0.209,0.557-1.037,0.557-1.084c0-0.039-0.026-0.082-0.062-0.101
		c-0.036-0.022-0.081-0.021-0.118,0.007c-0.007,0.01-0.304,0.203-0.765,0.404l-0.803-1.402c0.087-0.021,0.165-0.047,0.229-0.098
		c0.141-0.104,0.225-0.271,0.234-0.445c0.165,0.051,0.348,0.021,0.486-0.076c0.186-0.143,0.26-0.351,0.188-0.562
		c-0.016-0.047-0.064-0.135-0.104-0.193l0.123-0.084c0.053-0.037,0.062-0.111,0.024-0.162c-0.034-0.051-0.106-0.063-0.159-0.031
		l-1.222,0.879v-0.383c0-0.09-0.071-0.161-0.164-0.161c-0.091,0-0.157,0.071-0.157,0.165v0.229l-0.895-1.557
		c0.049-0.023,0.099-0.051,0.139-0.081c0.199-0.149,0.303-0.396,0.294-0.647c0.234,0.076,0.5,0.039,0.694-0.111
		c0.195-0.151,0.303-0.395,0.287-0.651c0.242,0.083,0.5,0.037,0.695-0.108c0.234-0.183,0.402-0.522,0.268-0.824
		c-0.028-0.062-0.11-0.166-0.171-0.231l0.141-0.108c0.052-0.037,0.062-0.106,0.026-0.162c-0.04-0.051-0.112-0.061-0.164-0.02
		l-1.74,1.348c-0.118-0.105-0.388-0.308-0.824-0.396V67.57c0-0.09-0.076-0.162-0.164-0.162c-0.092,0-0.162,0.072-0.162,0.162v0.926
		h-0.002h-0.004c-0.285-0.031-0.604-0.031-0.938-0.008c0.003-2.391-0.003-2.752-0.007-2.811H30.7
		c-0.003-0.052-0.027-0.089-0.073-0.113c-0.085-0.047-0.234-0.033-0.322,0.02c-0.041,0.033-0.064,0.064-0.062,0.105v0.139
		c-0.009,0.003-0.017,0.003-0.022,0.009c-0.517,0.496-1.361,0.649-2.273,0.427c-0.057-0.017-0.111,0.021-0.136,0.072
		c-0.021,0.053,0.002,0.109,0.053,0.145c0.067,0.039,0.346,0.254,0.436,0.613c0.078,0.299,0.013,0.618-0.197,0.956
		c-0.027,0.048-0.02,0.104,0.017,0.144c0.022,0.021,0.053,0.031,0.083,0.031c0.021,0,0.038-0.002,0.06-0.016
		c0.005-0.003,0.669-0.398,1.314-0.398c0.265,0,0.486,0.067,0.667,0.195v0.521c-0.483,0.058-1.007,0.164-1.562,0.316
		c-0.017,0.004-0.029,0.01-0.041,0.02c-2.498,1.922-2.666,4.49-2.668,5.104c-0.409-0.115-0.822-0.238-0.971-0.371
		c-0.008-0.011-0.021-0.008-0.029-0.014c-0.322-0.419-0.897-0.844-0.92-0.859c-0.051-0.043-0.12-0.025-0.158,0.023
		c-0.04,0.052-0.029,0.127,0.022,0.164c0.007,0.003,0.554,0.408,0.858,0.797c-0.099,0.216-0.255,0.747,0.335,1.266
		c0.192,0.172,0.181,0.531,0.169,0.912c-0.001,0.066-0.001,0.139-0.001,0.211c-0.243-0.061-0.491-0.119-0.98-0.119
		c-0.49,0-0.736,0.061-0.978,0.119c-0.236,0.059-0.461,0.109-0.924,0.109c-0.461,0-0.687-0.051-0.923-0.109
		c-0.203-0.051-0.419-0.1-0.77-0.113c-2.965-1.967-5.306-4.836-6.621-8.229c-0.004-0.01-0.005-0.016-0.007-0.021
		c-0.105-0.27-0.203-0.537-0.294-0.812c-0.006-0.022-0.012-0.038-0.017-0.058c-0.087-0.262-0.167-0.52-0.238-0.786
		c-0.009-0.035-0.021-0.069-0.029-0.104c-0.069-0.248-0.128-0.5-0.185-0.752c-0.012-0.051-0.022-0.104-0.034-0.15
		c-0.012-0.061-0.021-0.114-0.033-0.176c0.007,0.028,0.013,0.062,0.016,0.088H46.88C45.922,69.561,43.201,73.484,39.469,75.975
		 M28.404,66.85c-0.053-0.189-0.144-0.354-0.238-0.479c0.632,0.089,1.225,0,1.691-0.246c-0.151,0.327-0.248,0.793,0.043,1.338
		c-0.125-0.035-0.264-0.05-0.408-0.05c-0.436,0-0.868,0.149-1.15,0.274C28.453,67.4,28.471,67.123,28.404,66.85 M46.9,64.497H13.2
		c-0.026-0.138-0.053-0.272-0.075-0.406c-0.01-0.054-0.018-0.097-0.025-0.146h7.016c0.024,0,0.049-0.006,0.068-0.021l0.686-0.49
		h18.269l0.684,0.49c0.021,0.016,0.046,0.021,0.068,0.021h7.119C46.977,64.133,46.938,64.314,46.9,64.497 M22.749,63.197H22.04
		 M24.949,63.197h-1.996 M26.404,63.197h-1.255 M34.914,63.197h-1.252 M37.107,63.197h-1.99 M37.964,63.197h-0.649 M21.836,63.197
		h-1.008c-0.024,0-0.048,0.006-0.067,0.023l-0.685,0.486h-7.571c0.009,0.061,0.013,0.115,0.025,0.176
		c-0.037-0.232-0.068-0.469-0.098-0.701c-0.009-0.086-0.022-0.166-0.032-0.248c-0.026-0.233-0.04-0.475-0.056-0.709
		c-0.008-0.082-0.016-0.164-0.019-0.244c-0.02-0.316-0.026-0.635-0.026-0.959V50.586h34.833v10.389h0.571
		c-0.006,0.016-0.571,0.033-0.571,0.051c0,0.91-0.075,1.808-0.206,2.686h-7.004l-0.688-0.486c-0.021-0.02-0.041-0.023-0.065-0.023
		H38.16"/>
	<path fill="#525358" d="M50.18,17.789c-0.035-0.082-0.106-0.143-0.191-0.171c-0.313-0.113-0.633-0.223-0.954-0.324l0,0
		c-0.013-0.006-0.021-0.009-0.031-0.009c-0.026-0.012-0.062-0.017-0.094-0.017c-0.005,0-0.007-0.003-0.007-0.003h-0.004H48.88
		c-0.007,0-0.015,0.005-0.024,0.006c-0.024,0.001-0.053,0.012-0.082,0.021c-0.002,0.001-0.01,0.001-0.019,0.003l-0.364,0.162
		c-0.062-0.02-0.127-0.044-0.19-0.062l0.001-0.013c0.056-0.18-0.043-0.371-0.225-0.426c-0.342-0.108-0.683-0.205-1.024-0.306
		c-0.031-0.01-0.062-0.013-0.091-0.013c0,0-0.002-0.003-0.004-0.003l0,0h-0.01h-0.004c-0.05,0.003-0.098,0.016-0.141,0.037
		l-0.357,0.172c-0.062-0.017-0.131-0.037-0.197-0.052l0.01-0.016c0.043-0.181-0.062-0.37-0.24-0.416
		c-0.354-0.099-0.713-0.189-1.066-0.28c-0.029-0.007-0.056-0.009-0.082-0.009c-0.043,0-0.082,0.008-0.119,0.026
		c-0.012,0.001-0.024,0.011-0.032,0.016c-0.028,0.015-0.052,0.03-0.073,0.053c-0.008,0.006-0.014,0.008-0.021,0.011l-0.732,0.792
		c-0.04,0.043-0.07,0.098-0.086,0.154l-0.27,1.139l-0.179,0.771c0,0,0,0.004,0,0.009c-0.75-0.176-1.505-0.342-2.269-0.489
		l0.498-0.523c0.008-0.006,0.008-0.015,0.014-0.021c0.033-0.035,0.057-0.078,0.064-0.124c0.008-0.01,0.01-0.017,0.01-0.021
		l0.004-0.006l0.396-2.07c0.02-0.09-0.004-0.185-0.056-0.26c-0.047-0.072-0.125-0.123-0.215-0.141
		c-0.337-0.068-0.679-0.131-1.021-0.189c-0.017-0.004-0.033-0.004-0.051-0.004H40.63h-0.004H40.62c-0.034,0-0.068,0.006-0.103,0.017
		c-0.012,0.001-0.022,0.01-0.029,0.015c-0.018,0.009-0.03,0.014-0.043,0.021l-0.32,0.202c-0.07-0.013-0.148-0.021-0.218-0.034
		v-0.011c0.03-0.189-0.097-0.362-0.277-0.393c-0.354-0.057-0.707-0.108-1.062-0.16c-0.016-0.001-0.031-0.001-0.047-0.001
		c-0.008,0-0.01,0.001-0.018,0.001c-0.029,0-0.062,0.006-0.093,0.018c-0.015,0.001-0.022,0.011-0.036,0.02
		c-0.018,0.006-0.027,0.008-0.04,0.021l-0.319,0.216c-0.07-0.01-0.145-0.021-0.217-0.027l0.004-0.005
		c0.008-0.09-0.021-0.181-0.07-0.254c-0.055-0.067-0.137-0.115-0.229-0.128c-0.363-0.041-0.73-0.086-1.102-0.124h-0.03l0,0
		c-0.05,0-0.101,0.016-0.142,0.032c-0.014,0.006-0.022,0.016-0.033,0.021c-0.031,0.02-0.059,0.042-0.078,0.067
		c-0.008,0.009-0.02,0.011-0.023,0.02l-0.617,0.886c-0.033,0.049-0.057,0.104-0.06,0.165l-0.108,1.165l-0.078,0.787l0.004,0.011
		c-0.74-0.066-1.487-0.121-2.237-0.16c0.106-0.141,0.233-0.342,0.382-0.643v-0.002c0.021-0.04,0.031-0.087,0.034-0.134l0.106-2.107
		c0.006-0.091-0.025-0.181-0.086-0.247c-0.062-0.066-0.146-0.109-0.233-0.112l-1.165-0.048h-0.004h-0.004h-0.012H32
		c-0.084,0-0.162,0.028-0.229,0.089c-0.027,0.026-0.047,0.059-0.064,0.091l-0.654,0.635l0.004-0.503
		c0.004-0.091-0.033-0.181-0.097-0.243c-0.063-0.064-0.149-0.099-0.237-0.099l-0.722-0.007h-0.003l-0.723,0.005
		c-0.09,0-0.174,0.035-0.236,0.099c-0.062,0.062-0.1,0.151-0.098,0.243l0.002,0.505l-0.655-0.637
		c-0.019-0.034-0.035-0.066-0.064-0.091c-0.062-0.061-0.146-0.089-0.23-0.089h-0.015h-0.01h-0.006h-0.007l-1.168,0.048
		c-0.088,0.003-0.172,0.046-0.231,0.112c-0.062,0.065-0.093,0.155-0.089,0.247l0.107,2.107c0.003,0.049,0.018,0.095,0.035,0.135
		c0.15,0.309,0.275,0.51,0.385,0.651c-0.751,0.042-1.501,0.098-2.243,0.167c0,0,0.003-0.017,0.001-0.024L24.68,16.94l-0.109-1.164
		c-0.006-0.06-0.028-0.117-0.062-0.165l-0.618-0.886c0-0.005-0.011-0.007-0.02-0.015c-0.023-0.025-0.043-0.049-0.075-0.067
		c-0.015-0.008-0.024-0.016-0.037-0.022c-0.042-0.018-0.088-0.032-0.138-0.032h-0.033c-0.366,0.039-0.734,0.083-1.098,0.125
		c-0.09,0.013-0.168,0.061-0.226,0.128c-0.057,0.072-0.081,0.165-0.07,0.255l0.023,0.197l-0.56-0.381
		c-0.014-0.011-0.029-0.016-0.042-0.02c-0.013-0.008-0.022-0.017-0.035-0.02c-0.028-0.013-0.062-0.016-0.094-0.018
		c-0.006,0-0.011-0.001-0.014-0.001c-0.016,0-0.032,0-0.046,0.001c-0.354,0.049-0.707,0.104-1.062,0.16
		c-0.179,0.029-0.306,0.202-0.275,0.392l0.027,0.192l-0.572-0.359c-0.005-0.001-0.011-0.001-0.016-0.003
		c-0.048-0.029-0.099-0.046-0.16-0.046l0,0c-0.022,0-0.038,0-0.06,0.005c-0.339,0.06-0.678,0.121-1.019,0.188
		c-0.088,0.018-0.167,0.069-0.216,0.141c-0.049,0.075-0.069,0.169-0.052,0.259l0.396,2.071c0,0,0.004,0.006,0.005,0.008
		c0,0,0.005,0.011,0.005,0.02c0.016,0.048,0.04,0.091,0.068,0.127c0.006,0.004,0.006,0.012,0.013,0.02l0.507,0.533
		c-0.764,0.148-1.519,0.312-2.272,0.491c0-0.01,0-0.015,0-0.015l-0.184-0.774l-0.267-1.139c-0.015-0.058-0.042-0.11-0.083-0.154
		l-0.733-0.791c-0.004-0.003-0.011-0.008-0.02-0.014c-0.021-0.017-0.044-0.035-0.071-0.05c-0.011-0.003-0.021-0.013-0.034-0.016
		c-0.038-0.018-0.08-0.026-0.12-0.026c-0.029,0-0.053,0.001-0.083,0.01c-0.354,0.09-0.713,0.182-1.067,0.279
		c-0.178,0.046-0.288,0.235-0.237,0.416l0.048,0.188l-0.604-0.298c-0.047-0.022-0.098-0.034-0.145-0.034
		c-0.034,0-0.062,0.005-0.095,0.017c-0.347,0.101-0.686,0.2-1.028,0.307c-0.178,0.057-0.279,0.246-0.224,0.428l0.054,0.185
		l-0.616-0.271C11.229,17.3,11.225,17.3,11.221,17.3c-0.041-0.02-0.079-0.027-0.122-0.027c-0.034,0-0.069,0.004-0.103,0.02
		c-0.331,0.102-0.659,0.217-0.984,0.331c-0.086,0.031-0.155,0.091-0.193,0.173c-0.041,0.078-0.045,0.174-0.018,0.261l0.675,1.999
		c0.003-0.001,0.005,0.003,0.005,0.003c0.003,0.008,0.007,0.014,0.013,0.02c0.019,0.045,0.046,0.082,0.082,0.114
		c0.008,0.006,0.01,0.012,0.013,0.014l0.734,0.589c0.009,0.005,0.022,0.008,0.034,0.017c0.008,0.005,0.012,0.013,0.021,0.018
		c0.007,0,0.014,0,0.02,0.003c0.019,0.01,0.04,0.01,0.061,0.018l2.214,6.744v-0.003v0.003l1.075,3.271h0.029
		c0.644,1.238,8.168,2.053,15.223,2.053c7.055,0,14.577-0.815,15.221-2.053h0.027l1.074-3.273v0.003l2.217-6.74
		c0.014,0,0.023,0,0.033-0.003c0.011-0.007,0.017-0.012,0.021-0.012c0.029-0.014,0.056-0.023,0.078-0.043h0.003l0.736-0.589
		c0.006,0,0.009-0.009,0.016-0.014c0.034-0.034,0.062-0.07,0.081-0.113c0.005-0.007,0.011-0.015,0.015-0.021
		c0,0,0-0.005,0.004-0.006l0.672-1.999C50.225,17.965,50.221,17.867,50.18,17.789 M43.669,19.488l-0.315,1.292
		c-0.955-0.231-1.916-0.446-2.885-0.631l0.238-1.31C41.701,19.029,42.688,19.249,43.669,19.488 M43.146,21.635l-1.069,4.37
		c-0.853-0.207-1.706-0.396-2.568-0.556l0.806-4.438C41.268,21.197,42.208,21.403,43.146,21.635 M36.38,14.923
		c0.367,0.037,0.729,0.082,1.095,0.123l-0.113,0.94c0.349,0.04,0.695,0.089,1.041,0.134l0.132-0.931
		c0.351,0.049,0.698,0.099,1.051,0.156l-0.146,0.93c0.345,0.058,0.688,0.116,1.033,0.18l0.16-0.931
		c0.342,0.06,0.678,0.123,1.016,0.187l-0.396,2.076c-1.672-0.328-3.364-0.582-5.087-0.762L36.38,14.923z M36.887,18.249
		c1.168,0.143,2.34,0.316,3.493,0.528l-1.202,6.604c-0.236-0.041-0.477-0.075-0.711-0.115l0.311-1.891
		c0.043-0.303-0.024-0.604-0.188-0.834c-0.146-0.193-0.342-0.314-0.565-0.348h-0.006c-0.498-0.07-0.971,0.337-1.055,0.915
		l-0.257,1.896c-0.188-0.024-0.376-0.054-0.563-0.077L36.887,18.249z M35.711,18.125l-0.135,1.323
		c-0.977-0.099-1.956-0.173-2.939-0.219l0.057-1.332C33.701,17.944,34.711,18.027,35.711,18.125 M35.484,20.327L35.02,24.82
		c-0.865-0.086-1.74-0.154-2.617-0.193l0.195-4.514C33.562,20.155,34.529,20.233,35.484,20.327 M26.915,16.782L26.915,16.782
		l-0.106-2.107l0.824-0.035l0.366-0.016l0.033,0.941c0,0,0.414-0.009,0.594-0.016c0.213-0.007,0.666-0.015,0.666-0.015l-0.012-0.943
		H30h0.725l-0.012,0.942c0,0,0.454,0.006,0.667,0.014c0.181,0.007,0.595,0.017,0.595,0.017l0.03-0.941l0.365,0.016l0.825,0.035
		l-0.092,1.766l-0.021,0.34c-1.021-0.054-2.051-0.081-3.086-0.081C28.966,16.701,27.938,16.728,26.915,16.782 M30.042,21.594H30.03
		h-0.057H29.96c-0.629,0.021-1.134,0.486-1.134,1.062l0.033,1.923c-0.193,0.001-0.392,0.012-0.582,0.016
		c-0.115,0.006-0.232,0.006-0.346,0.011l-0.286-6.721c0.777-0.035,1.567-0.05,2.352-0.05c0.788,0,1.577,0.018,2.356,0.05
		l-0.289,6.721c-0.308-0.014-0.619-0.014-0.926-0.019l0.034-1.934C31.173,22.08,30.669,21.614,30.042,21.594 M27.601,24.623
		c-0.875,0.04-1.751,0.104-2.621,0.188l-0.46-4.478c0.956-0.093,1.918-0.168,2.887-0.217L27.601,24.623z M27.312,17.905l0.055,1.328
		c-0.981,0.052-1.963,0.128-2.94,0.225l-0.136-1.322C25.292,18.034,26.302,17.956,27.312,17.905 M21.227,23.379l0.309,1.888
		c-0.234,0.04-0.474,0.072-0.707,0.115l-1.203-6.603c1.152-0.212,2.324-0.385,3.497-0.528l0.744,6.679
		c-0.188,0.022-0.376,0.052-0.566,0.075l-0.253-1.899c-0.086-0.576-0.56-0.979-1.059-0.912h-0.006
		c-0.225,0.034-0.424,0.155-0.564,0.348C21.25,22.771,21.181,23.072,21.227,23.379 M20.496,25.451
		c-0.862,0.162-1.72,0.343-2.571,0.549l-1.066-4.358c0.935-0.23,1.879-0.437,2.832-0.617L20.496,25.451z M18.749,17.788
		l-0.396-2.076c0.338-0.064,0.679-0.126,1.018-0.188l0.161,0.933c0.344-0.062,0.688-0.122,1.034-0.18l-0.144-0.931
		c0.35-0.057,0.7-0.107,1.052-0.156l0.128,0.931c0.346-0.047,0.691-0.094,1.039-0.137l-0.11-0.938
		c0.363-0.041,0.727-0.086,1.091-0.123l0.219,2.103C22.119,17.205,20.421,17.459,18.749,17.788 M19.296,18.849l0.234,1.308
		c-0.966,0.185-1.926,0.396-2.883,0.633l-0.312-1.296C17.318,19.258,18.304,19.038,19.296,18.849 M11.172,19.816
		c-0.017,0.005-0.03,0.008-0.042,0.014c-0.112,0.035-0.224,0.07-0.333,0.108l-0.109-0.325l-0.565-1.675
		c0.324-0.11,0.651-0.226,0.978-0.331l0.284,0.885c0.333-0.107,0.667-0.217,1.001-0.317l-0.128-0.427l-0.138-0.464
		c0.23-0.074,0.462-0.143,0.699-0.213c0.104-0.032,0.212-0.065,0.323-0.098l0.25,0.896c0.336-0.094,0.672-0.188,1.012-0.281
		l-0.116-0.434l-0.12-0.467c0.243-0.067,0.491-0.131,0.737-0.194c0.108-0.026,0.216-0.056,0.325-0.083l0.499,2.047
		C14.186,18.849,12.666,19.304,11.172,19.816 M12.617,23.284L12.617,23.284l-0.818-2.492c1.118-0.374,2.256-0.714,3.391-1.02
		l1.649,6.506c-0.18,0.048-0.36,0.104-0.541,0.15l-0.507-1.833c-0.165-0.554-0.688-0.895-1.17-0.757c-0.001,0-0.005,0-0.008,0.003
		c-0.216,0.064-0.396,0.213-0.51,0.429c-0.133,0.25-0.16,0.555-0.075,0.852l0.563,1.817c-0.233,0.072-0.469,0.143-0.701,0.22
		L12.617,23.284z M45.079,30.301c-1.212-1.294-8.074-2.797-15.081-2.797c-7.003,0-13.866,1.502-15.075,2.797l-0.762-2.312
		c5.088-1.693,10.406-2.559,15.812-2.559h0.053c5.406,0,10.729,0.864,15.812,2.559L45.079,30.301z M47.389,23.284L47.389,23.284
		l-1.277,3.875c-0.229-0.075-0.463-0.146-0.697-0.22l0.562-1.823c0.086-0.292,0.058-0.602-0.074-0.849
		c-0.111-0.212-0.297-0.362-0.51-0.426c-0.004-0.003-0.006-0.003-0.013-0.003c-0.483-0.138-1.007,0.202-1.166,0.757l-0.506,1.833
		c-0.185-0.053-0.362-0.102-0.544-0.15l1.648-6.506c1.133,0.306,2.271,0.646,3.391,1.02L47.389,23.284z M49.201,19.938
		c-1.615-0.563-3.264-1.056-4.936-1.478l0.5-2.048c0.358,0.088,0.711,0.184,1.062,0.277l-0.234,0.899
		c0.341,0.092,0.673,0.187,1.015,0.281l0.252-0.896c0.342,0.101,0.683,0.2,1.021,0.31l-0.267,0.891
		c0.337,0.101,0.669,0.209,1.002,0.317l0.279-0.885c0.332,0.105,0.655,0.221,0.979,0.332L49.201,19.938z"/>
	<path fill="#525358" d="M31.253,68.572c-0.112,0.078-0.221,0.164-0.325,0.253c-0.099,0.081-0.188,0.163-0.277,0.247
		c-0.168,0.164-0.332,0.342-0.472,0.529c-0.1,0.135-0.194,0.271-0.28,0.414c-0.744,1.26-0.514,3.01,0.152,4.144
		c-0.744-0.25-1.539-0.375-2.37-0.375c-0.795,0-1.401,0.118-1.665,0.179c0.005-0.619,0.181-3.125,2.638-5.025
		c0.272-0.074,0.531-0.138,0.785-0.188c0.008-0.003,0.02-0.003,0.027-0.003C30.122,68.611,30.725,68.55,31.253,68.572"/>
	<path fill="#525358" d="M34.467,67.828c0.062,0.072,0.139,0.166,0.159,0.209c0.103,0.221-0.04,0.494-0.228,0.635
		c-0.185,0.146-0.44,0.166-0.666,0.047c-0.021-0.019-0.051-0.021-0.076-0.013c-0.041,0.013-0.064,0.06-0.055,0.097
		c0.058,0.25-0.025,0.508-0.221,0.656c-0.184,0.143-0.443,0.16-0.664,0.041c-0.021-0.014-0.054-0.021-0.078-0.01
		c-0.039,0.016-0.062,0.055-0.058,0.098c0.06,0.25-0.024,0.506-0.216,0.652c-0.098,0.072-0.211,0.113-0.328,0.121
		c-0.003,0-0.012,0-0.018,0c-0.104,0.004-0.222-0.021-0.324-0.074c-0.021-0.02-0.053-0.023-0.084-0.01
		c-0.034,0.014-0.055,0.056-0.045,0.095c0.058,0.253-0.024,0.508-0.221,0.653c-0.022,0.019-0.055,0.033-0.082,0.045
		c-0.043,0.025-0.088,0.045-0.135,0.053c-0.007,0-0.01,0-0.013,0.004c-0.044,0.01-0.089,0.02-0.132,0.02
		c-0.021,0-0.037-0.004-0.055-0.008c-0.033-0.002-0.063-0.006-0.097-0.012c-0.058-0.012-0.108-0.029-0.159-0.061
		c-0.021-0.019-0.061-0.022-0.089-0.002c-0.03,0.02-0.051,0.056-0.041,0.095c0.058,0.245-0.024,0.505-0.217,0.651
		c-0.11,0.082-0.244,0.119-0.384,0.111c-0.016,0-0.03,0-0.045,0c-0.078-0.012-0.155-0.029-0.229-0.062
		c0-0.121,0.008-0.232,0.02-0.352l0.478-0.367l1.782-1.377L34.467,67.828z"/>
	<path fill="#525358" d="M33.92,72.775c-0.033,0.024-0.07,0.037-0.107,0.053h-0.002c-0.037,0.016-0.08,0.02-0.121,0.02
		c-0.072,0-0.15-0.017-0.217-0.056c-0.027-0.017-0.061-0.022-0.086-0.011c-0.037,0.014-0.061,0.057-0.051,0.099
		c0.034,0.167-0.027,0.343-0.158,0.437c-0.13,0.094-0.305,0.104-0.447,0.021c-0.021-0.021-0.049-0.025-0.076-0.021
		c-0.045,0.019-0.069,0.058-0.061,0.104c0.029,0.147-0.06,0.354-0.205,0.462c-0.031,0.021-0.065,0.031-0.105,0.039
		c-0.02,0.01-0.033,0.01-0.057,0.01c-0.021,0.004-0.041,0.006-0.062,0.006c-0.03-0.002-0.06-0.006-0.083-0.01
		c-0.012-0.006-0.018-0.006-0.025-0.006c-0.035-0.008-0.063-0.018-0.102-0.025c-0.021-0.015-0.051-0.022-0.064-0.035v-0.127
		l2.821-2.03c0.037,0.062,0.076,0.131,0.086,0.153c0.048,0.146,0.001,0.281-0.133,0.377c-0.127,0.096-0.304,0.104-0.45,0.021
		c-0.02-0.021-0.044-0.021-0.072-0.021c-0.043,0.017-0.069,0.061-0.061,0.103C34.109,72.503,34.053,72.675,33.92,72.775"/>
	<path fill="#525358" d="M27.181,74.85c0.476,0.801,0.713,0.83,1.591,0.939c0.125,0.02,0.26,0.033,0.405,0.052l0.068,0.009
		c0.504,0.07,1.026,0.146,1.487,0.146c0.129,0,0.246-0.012,0.357-0.021c0.078-0.012,0.146-0.021,0.215-0.039
		c0.021-0.006,0.049-0.008,0.069-0.016c0.082-0.025,0.151-0.05,0.218-0.086c0.006,0,0.01-0.003,0.012-0.006
		c0.067-0.031,0.127-0.072,0.183-0.119c0.024-0.021,0.056-0.04,0.077-0.064c0.044-0.053,0.068-0.113,0.098-0.178
		c0.02-0.042,0.032-0.089,0.047-0.134c0.014-0.073,0.031-0.147,0.031-0.229c0.195,0.033,0.402,0.051,0.609,0.051
		c1.139,0,2.158-0.498,2.619-0.764c-0.088,0.264-0.242,0.612-0.406,0.664c-0.041,0.016-0.074,0.059-0.079,0.104
		c-0.056,0.55-0.351,0.581-0.359,0.581c-0.03,0.005-0.062,0.021-0.081,0.044c-0.021,0.026-0.033,0.054-0.031,0.089
		c0.013,0.146,0.013,0.27,0.004,0.385v0.004c-0.012,0.301-0.082,0.52-0.16,0.682c-0.113,0.025-0.245,0.047-0.422,0.057
		c-0.06,0-0.119,0.007-0.19,0.007c-0.426,0-0.633-0.062-0.853-0.112c-0.228-0.062-0.459-0.129-0.918-0.129
		c-0.457,0-0.688,0.062-0.914,0.129c-0.223,0.055-0.426,0.112-0.854,0.112c-0.427,0-0.634-0.062-0.855-0.112
		c-0.223-0.062-0.455-0.129-0.916-0.129c-0.459,0-0.691,0.062-0.915,0.129c-0.221,0.055-0.43,0.112-0.855,0.112
		c-0.425,0-0.634-0.062-0.854-0.112c-0.067-0.023-0.14-0.037-0.216-0.059h0.001c-0.022-0.057-0.036-0.113-0.051-0.18
		c-0.027-0.133-0.035-0.279-0.035-0.432v-0.002c0-0.092,0.003-0.176,0.003-0.26c0.013-0.434,0.028-0.879-0.257-1.129
		c-0.455-0.398-0.38-0.79-0.305-0.977c0.231,0.143,0.611,0.248,1.04,0.373C26.361,74.4,27.022,74.591,27.181,74.85"/>
	<path fill="#525358" d="M28.404,66.85c-0.053-0.189-0.144-0.354-0.238-0.479c0.632,0.092,1.225,0,1.691-0.246
		c-0.151,0.327-0.248,0.796,0.043,1.338c-0.125-0.031-0.264-0.05-0.408-0.05c-0.436,0-0.868,0.149-1.15,0.274
		C28.453,67.4,28.471,67.12,28.404,66.85"/>
	<path fill="#525358" d="M47.273,60.975V50.586H12.302v10.439c0,0.318,0.009,0.637,0.025,0.955c0.005,0.082,0.013,0.164,0.019,0.244
		c0.016,0.234,0.034,0.476,0.056,0.709c0.011,0.082,0.022,0.162,0.032,0.244c0.029,0.231,0.059,0.473,0.098,0.701
		c-0.01-0.061-0.017-0.113-0.026-0.175h7.573l0.684-0.485c0.019-0.021,0.041-0.025,0.067-0.025h1.008h16.329h1.01
		c0.024,0,0.048,0.007,0.065,0.025l0.688,0.485h7.143c0.133-0.878,0.207-1.771,0.207-2.687c0-0.02,0.004-0.037,0.009-0.049h-0.011
		v0.002h-0.004V60.975L47.273,60.975z M22.455,62.959h-0.618v-5.645c0-0.187,0.146-0.326,0.322-0.326h0.274v-0.004h0.021
		L22.455,62.959L22.455,62.959z M33.514,62.959h-0.688c0.006-1.456-0.021-1.834-0.021-1.834c0-1.85-1.354-2.575-2.77-2.562
		c-1.151,0.015-2.8,0.713-2.8,2.562c0,0-0.024,0.378-0.02,1.834h-0.662c-0.01-1.686-0.01-2.337-0.01-2.337
		c0-1.897,1.598-3.502,3.489-3.502c1.893,0,3.485,1.601,3.485,3.495C33.521,60.611,33.523,61.273,33.514,62.959 M34.609,62.959
		h-0.799c0.01-1.686,0.01-2.348,0.01-2.348c0-2.059-1.734-3.793-3.787-3.797c-2.054,0.004-3.791,1.748-3.791,3.808
		c0,0,0,0.651,0.011,2.337h-0.781 M25.151,62.959h-2.399v-6.736v-0.307v-1.377c0.006-0.145,0.124-0.266,0.271-0.266h1.534h0.318
		c0.15,0,0.275,0.125,0.275,0.274v0.284h0.318h9.142h0.297h0.007v-0.176V54.55c0-0.149,0.125-0.274,0.274-0.274h1.526h0.319
		c0.15,0,0.271,0.125,0.271,0.274v0.109h0.004v1.26v0.304v0.769v5.97h-2.404 M38.164,62.959h-0.555v-5.971h0.23
		c0.18,0,0.322,0.145,0.322,0.326L38.164,62.959L38.164,62.959z"/>
</g>
</svg>
