<?xml version="1.0" encoding="utf-8"?>
<!-- Generator: Adobe Illustrator 15.0.2, SVG Export Plug-In . SVG Version: 6.00 Build 0)  -->
<!DOCTYPE svg PUBLIC "-//W3C//DTD SVG 1.1//EN" "http://www.w3.org/Graphics/SVG/1.1/DTD/svg11.dtd">
<svg version="1.1" id="Camada_1" xmlns="http://www.w3.org/2000/svg" xmlns:xlink="http://www.w3.org/1999/xlink" x="0px" y="0px"
	 width="165px" height="15px" viewBox="0 0 165 15" enable-background="new 0 0 165 15" xml:space="preserve">
<g>
	<path fill="#FFFFFF" d="M108.928,7.156c0-1.104,0.641-3.416,2.007-3.416c0.786,0,1.074,0.545,1.074,1.267
		c0,1.106-0.672,3.417-2.036,3.417C109.187,8.424,108.928,7.857,108.928,7.156 M105.823,7.333c0,2.145,1.872,2.965,3.745,2.965
		c3.274,0,5.55-2.183,5.55-5.479c0-2.169-1.874-2.948-3.751-2.948C108.085,1.871,105.823,4.015,105.823,7.333"/>
	<path fill="#FFFFFF" d="M92.888,6.769c0.111-1.021,0.669-3.011,1.952-3.011c0.814,0,1.009,0.614,1.009,1.297
		c-0.017,1.171-0.575,3.385-2.033,3.385C92.933,8.44,92.806,7.508,92.888,6.769 M93.413,3.501l0.275-1.471H90.88
		c-0.094,0.699-0.242,1.408-0.383,2.093l-2.005,9.458h2.968l0.977-4.582c0.35,0.902,0.993,1.299,2.034,1.299
		c2.791,0,4.521-2.744,4.521-5.496c0-1.173-0.402-2.931-2.646-2.931C95.017,1.871,94.036,2.555,93.413,3.501"/>
	<path fill="#FFFFFF" d="M103.076,3.776l0.319-1.73h-2.806c-0.045,0.575-0.177,1.146-0.304,1.73l-1.348,6.345h2.967l0.688-3.268
		c0.274-1.264,1.155-2.421,2.535-2.421c0.239,0,0.463,0.018,0.675,0.112l0.657-2.613c-0.192-0.06-0.402-0.08-0.611-0.08
		C104.58,1.851,103.618,2.681,103.076,3.776"/>
	<path fill="#FFFFFF" d="M158.285,7.317c0-0.4,0.058-0.784,0.159-1.128c0,0,0.065-0.343,0.215-0.562
		c0.553-1.178,1.647-1.933,2.666-1.933c0.129,0,0.291,0.016,0.439,0.064l-0.352,1.429c-0.096,0.382-0.209,0.754-0.333,1.09
		l-0.175,0.42c-0.449,1.007-1.051,1.691-1.739,1.691C158.493,8.389,158.285,7.911,158.285,7.317 M155.642,5.348l-0.273,0.735
		c-0.147,0.491-0.229,1.025-0.229,1.603c0,1.52,0.837,2.612,2.63,2.612c1.442,0,2.31-0.802,2.983-1.891
		c-0.111,0.623-0.257,1.316-0.306,1.714h3.044c0.038-0.477,0.081-1.158,0.316-2.266l0.059-0.276L165,2.28
		c-0.595-0.234-2.069-0.43-3.155-0.43C159.479,1.851,156.744,2.991,155.642,5.348"/>
	<path fill="#FFFFFF" d="M148.823,6.769c0.108-1.021,0.668-3.011,1.949-3.011c0.818,0,1.014,0.614,1.014,1.297
		c-0.021,1.171-0.579,3.385-2.035,3.385C148.868,8.44,148.739,7.508,148.823,6.769 M149.347,3.501l0.275-1.471h-2.807
		c-0.097,0.699-0.241,1.408-0.385,2.093l-2.006,9.458h2.969l0.977-4.582c0.354,0.902,0.993,1.299,2.035,1.299
		c2.789,0,4.52-2.744,4.52-5.496c0-1.173-0.399-2.931-2.642-2.931C150.95,1.871,149.972,2.555,149.347,3.501"/>
	<path fill="#FFFFFF" d="M115.438,7.189c0,2.195,1.777,3.109,3.749,3.109c0.916,0,1.811-0.094,2.676-0.35l0.321-1.942
		c-0.573,0.292-1.2,0.418-1.845,0.418c-1.039,0-1.764-0.656-1.764-1.699c0-1.554,1.156-2.984,2.792-2.984
		c0.531,0,1.137,0.149,1.603,0.403l0.513-1.938c-0.768-0.257-1.65-0.334-2.452-0.334C117.823,1.871,115.438,3.872,115.438,7.189"/>
	<path fill="#FFFFFF" d="M140.191,3.484c-0.082-1.12-1.011-1.613-2.054-1.613c-1.349,0-2.181,0.381-2.948,1.567l0.24-1.408h-2.811
		c-0.044,0.591-0.157,1.162-0.285,1.746l-1.346,6.345h2.963l0.993-4.729c0.147-0.715,0.611-1.652,1.476-1.652
		c0.516,0,0.755,0.24,0.755,0.758c0,0.208-0.031,0.418-0.08,0.624l-1.045,4.999h2.938l0.992-4.729
		c0.16-0.733,0.61-1.652,1.474-1.652c0.5,0,0.771,0.24,0.771,0.758c0,0.208-0.029,0.418-0.082,0.624l-1.057,4.999h2.969l1.06-5.045
		c0.076-0.388,0.173-0.804,0.173-1.205c0-1.363-0.95-2.001-2.229-2.001C141.788,1.871,140.862,2.431,140.191,3.484"/>
	<path fill="#FFFFFF" d="M128.12,3.456c0.446,0,0.805,0.192,0.805,0.688c0,0.963-1.67,1.284-2.906,1.284
		C126.354,4.526,127.062,3.456,128.12,3.456 M122.733,7.477c0,2.167,1.974,2.821,3.831,2.821c1.296,0,2.372-0.188,3.415-0.687
		l0.208-1.754c-0.756,0.501-1.731,0.84-2.644,0.84c-0.87,0-1.797-0.321-1.797-1.329c0-0.148,0-0.339,0.064-0.48
		c1.938,0,5.721-0.421,5.721-2.908c0-1.68-1.792-2.109-3.234-2.109C125.185,1.871,122.733,4.16,122.733,7.477"/>
</g>
<g>
	<path fill="#FFFFFF" d="M4.461,10.225V9.576c-0.456,0.553-0.947,0.72-1.607,0.72c-0.612,0-1.151-0.204-1.487-0.54
		C0.755,9.145,0.684,8.101,0.684,7.178s0.072-1.955,0.684-2.566c0.336-0.336,0.864-0.54,1.475-0.54c0.648,0,1.151,0.156,1.595,0.684
		v-3.07h1.224v8.54H4.461z M3.178,5.163c-1.104,0-1.271,0.935-1.271,2.015c0,1.08,0.168,2.027,1.271,2.027s1.259-0.947,1.259-2.027
		C4.438,6.098,4.282,5.163,3.178,5.163z"/>
	<path fill="#FFFFFF" d="M8.175,7.538c0,1.043,0.552,1.703,1.547,1.703c0.684,0,1.043-0.191,1.476-0.623l0.779,0.731
		c-0.624,0.624-1.211,0.947-2.279,0.947c-1.523,0-2.734-0.804-2.734-3.118c0-1.967,1.02-3.106,2.579-3.106
		c1.631,0,2.579,1.2,2.579,2.927v0.54H8.175z M10.741,5.858c-0.192-0.456-0.624-0.768-1.199-0.768s-1.02,0.312-1.211,0.768
		C8.21,6.134,8.187,6.314,8.175,6.686h2.734C10.897,6.314,10.861,6.134,10.741,5.858z"/>
	<path fill="#FFFFFF" d="M15.506,10.296c-0.996,0-1.835-0.167-2.555-0.876l0.804-0.803c0.492,0.504,1.151,0.635,1.751,0.635
		c0.744,0,1.331-0.264,1.331-0.839c0-0.408-0.228-0.671-0.815-0.72L15.05,7.609c-1.139-0.096-1.799-0.611-1.799-1.679
		c0-1.188,1.02-1.859,2.291-1.859c0.911,0,1.691,0.192,2.254,0.684l-0.768,0.779c-0.384-0.324-0.923-0.444-1.499-0.444
		c-0.731,0-1.104,0.324-1.104,0.78c0,0.36,0.192,0.636,0.84,0.695l0.959,0.084c1.139,0.096,1.811,0.636,1.811,1.715
		C18.036,9.637,16.957,10.296,15.506,10.296z"/>
	<path fill="#FFFFFF" d="M20.192,7.538c0,1.043,0.552,1.703,1.547,1.703c0.684,0,1.043-0.191,1.476-0.623l0.779,0.731
		c-0.624,0.624-1.211,0.947-2.279,0.947c-1.523,0-2.734-0.804-2.734-3.118c0-1.967,1.02-3.106,2.579-3.106
		c1.631,0,2.579,1.2,2.579,2.927v0.54H20.192z M22.759,5.858c-0.192-0.456-0.624-0.768-1.199-0.768s-1.02,0.312-1.211,0.768
		c-0.12,0.276-0.144,0.456-0.156,0.828h2.734C22.915,6.314,22.879,6.134,22.759,5.858z"/>
	<path fill="#FFFFFF" d="M29.122,10.225V6.518c0-0.947-0.54-1.355-1.223-1.355S26.64,5.583,26.64,6.518v3.707h-1.223V4.144h1.199
		v0.612c0.419-0.456,1.007-0.684,1.619-0.684c0.624,0,1.139,0.204,1.499,0.552c0.468,0.456,0.612,1.032,0.612,1.715v3.886H29.122z"
		/>
	<path fill="#FFFFFF" d="M34.211,10.225h-0.996l-2.231-6.081h1.295l1.439,4.282l1.427-4.282h1.295L34.211,10.225z"/>
	<path fill="#FFFFFF" d="M41.236,9.576c-0.396,0.408-0.995,0.72-1.823,0.72s-1.416-0.312-1.811-0.72
		c-0.576-0.6-0.72-1.367-0.72-2.398c0-1.02,0.144-1.787,0.72-2.387c0.396-0.408,0.983-0.72,1.811-0.72s1.427,0.312,1.823,0.72
		c0.576,0.6,0.72,1.367,0.72,2.387C41.956,8.209,41.812,8.977,41.236,9.576z M40.312,5.511c-0.228-0.228-0.54-0.348-0.899-0.348
		s-0.66,0.12-0.888,0.348c-0.372,0.372-0.42,1.007-0.42,1.667s0.048,1.295,0.42,1.667c0.228,0.228,0.528,0.36,0.888,0.36
		s0.671-0.133,0.899-0.36c0.372-0.372,0.42-1.007,0.42-1.667S40.684,5.882,40.312,5.511z"/>
	<path fill="#FFFFFF" d="M44.903,10.225c-1.164,0-1.667-0.78-1.667-1.68v-6.86h1.223v6.788c0,0.469,0.168,0.708,0.66,0.708h0.54
		v1.044H44.903z"/>
	<path fill="#FFFFFF" d="M48.893,10.225h-0.996l-2.231-6.081h1.295l1.439,4.282l1.427-4.282h1.295L48.893,10.225z"/>
	<path fill="#FFFFFF" d="M52.008,2.944V1.649h1.295v1.295H52.008z M52.044,10.225V4.144h1.223v6.081H52.044z"/>
	<path fill="#FFFFFF" d="M62.243,10.225V6.518c0-0.947-0.54-1.355-1.223-1.355c-0.66,0-1.259,0.419-1.259,1.295v3.767h-1.224V6.518
		c0-0.947-0.54-1.355-1.223-1.355s-1.259,0.419-1.259,1.355v3.707h-1.223V4.144h1.199v0.612c0.408-0.444,1.007-0.684,1.619-0.684
		c0.755,0,1.343,0.3,1.727,0.888c0.492-0.6,1.104-0.888,1.907-0.888c0.624,0,1.175,0.204,1.535,0.552
		c0.468,0.456,0.648,1.032,0.648,1.715v3.886H62.243z"/>
	<path fill="#FFFFFF" d="M65.928,7.538c0,1.043,0.551,1.703,1.547,1.703c0.684,0,1.043-0.191,1.475-0.623l0.78,0.731
		c-0.624,0.624-1.212,0.947-2.279,0.947c-1.523,0-2.734-0.804-2.734-3.118c0-1.967,1.02-3.106,2.578-3.106
		c1.632,0,2.579,1.2,2.579,2.927v0.54H65.928z M68.495,5.858c-0.192-0.456-0.624-0.768-1.2-0.768c-0.575,0-1.019,0.312-1.211,0.768
		c-0.12,0.276-0.144,0.456-0.156,0.828h2.734C68.65,6.314,68.614,6.134,68.495,5.858z"/>
	<path fill="#FFFFFF" d="M74.858,10.225V6.518c0-0.947-0.54-1.355-1.224-1.355s-1.26,0.419-1.26,1.355v3.707h-1.223V4.144h1.199
		v0.612c0.42-0.456,1.008-0.684,1.619-0.684c0.623,0,1.14,0.204,1.499,0.552c0.468,0.456,0.611,1.032,0.611,1.715v3.886H74.858z"/>
	<path fill="#FFFFFF" d="M79.419,10.225c-1.139,0-1.667-0.816-1.667-1.691V5.187h-0.695V4.251h0.695V2.404h1.224v1.847h1.175v0.936
		h-1.175v3.286c0,0.444,0.216,0.708,0.672,0.708h0.503v1.044H79.419z"/>
	<path fill="#FFFFFF" d="M85.352,9.576c-0.396,0.408-0.995,0.72-1.823,0.72c-0.827,0-1.415-0.312-1.811-0.72
		c-0.576-0.6-0.72-1.367-0.72-2.398c0-1.02,0.144-1.787,0.72-2.387c0.396-0.408,0.983-0.72,1.811-0.72
		c0.828,0,1.428,0.312,1.823,0.72c0.576,0.6,0.72,1.367,0.72,2.387C86.071,8.209,85.928,8.977,85.352,9.576z M84.428,5.511
		c-0.228-0.228-0.539-0.348-0.899-0.348c-0.359,0-0.659,0.12-0.887,0.348c-0.372,0.372-0.42,1.007-0.42,1.667
		s0.048,1.295,0.42,1.667c0.228,0.228,0.527,0.36,0.887,0.36c0.36,0,0.672-0.133,0.899-0.36c0.372-0.372,0.42-1.007,0.42-1.667
		S84.8,5.882,84.428,5.511z"/>
</g>
<line fill="none" x1="195.055" y1="25.975" x2="194.389" y2="25.475"/>
</svg>
