<?xml version="1.0" encoding="utf-8"?>
<!-- Generator: Adobe Illustrator 15.0.2, SVG Export Plug-In . SVG Version: 6.00 Build 0)  -->
<!DOCTYPE svg PUBLIC "-//W3C//DTD SVG 1.1//EN" "http://www.w3.org/Graphics/SVG/1.1/DTD/svg11.dtd">
<svg version="1.1" id="Camada_1" xmlns="http://www.w3.org/2000/svg" xmlns:xlink="http://www.w3.org/1999/xlink" x="0px" y="0px"
	 width="264px" height="60px" viewBox="0 0 264 60" enable-background="new 0 0 264 60" xml:space="preserve">
<g>
	<polyline fill="#009EE2" points="17.143,0 12.857,0 12.857,4.286 17.143,4.286 17.143,0 	"/>
	<polyline fill="#009EE2" points="12.857,0 8.572,0 8.572,4.286 12.857,4.286 12.857,0 	"/>
	<polyline fill="#33B1E8" points="21.429,0 17.143,0 17.143,4.286 21.429,4.286 21.429,0 	"/>
	<polyline fill="#33B1E8" points="25.714,0 21.429,0 21.429,4.286 25.714,4.286 25.714,0 	"/>
	<polyline fill="#009EE2" points="30,0 25.714,0 25.714,4.286 30,4.286 30,0 	"/>
	<polyline fill="#009EE2" points="12.857,4.286 12.857,4.286 8.572,4.286 8.572,8.571 12.857,8.571 12.857,4.286 	"/>
	<polyline fill="#66C5EE" points="8.572,4.286 4.286,4.286 4.286,8.571 8.572,8.571 8.572,4.286 	"/>
	<polyline fill="#009EE2" points="17.143,4.286 17.143,4.286 12.857,4.286 12.857,8.571 17.143,8.571 17.143,4.286 	"/>
	<polyline fill="#33B1E8" points="21.429,4.286 21.429,4.286 17.143,4.286 17.143,8.571 21.429,8.571 21.429,4.286 	"/>
	<polyline fill="#33B1E8" points="25.714,4.286 25.714,4.286 21.429,4.286 21.429,8.571 25.714,8.571 25.714,4.286 	"/>
	<polyline fill="#009EE2" points="30,4.286 30,4.286 25.714,4.286 25.714,8.571 30,8.571 30,4.286 	"/>
	<polyline fill="#009EE2" points="34.284,4.286 30,4.286 30,8.571 34.284,8.571 34.284,4.286 	"/>
	<polyline fill="#009EE2" points="30,21.428 25.714,25.714 30,25.714 30,21.428 	"/>
	<polyline fill="#009EE2" points="12.857,17.143 8.572,17.143 8.572,21.428 12.857,21.428 12.857,17.143 	"/>
	<polyline fill="#009EE2" points="17.143,17.143 12.857,17.143 12.857,21.428 17.143,21.428 17.143,17.143 	"/>
	<polyline fill="#66C5EE" points="21.429,17.143 17.143,17.143 17.143,21.428 21.429,21.428 21.429,17.143 	"/>
	<polyline fill="#66C5EE" points="25.714,17.143 21.429,17.143 21.429,21.428 25.714,17.143 	"/>
	<polyline fill="#009EE2" points="34.284,17.145 30,21.428 34.284,21.428 34.284,17.145 	"/>
	<polyline fill="#009EE2" points="12.857,21.428 12.857,21.428 8.572,21.428 8.572,25.714 12.857,21.428 	"/>
	<polyline fill="#009EE2" points="17.143,21.428 17.143,21.428 12.857,21.428 17.143,25.714 17.143,21.428 	"/>
	<polyline fill="#66C5EE" points="21.429,21.428 17.143,21.428 17.143,25.714 21.429,21.428 	"/>
	<polyline fill="#009EE2" points="34.284,21.428 30,21.428 30,25.714 34.284,25.714 34.284,21.428 	"/>
	<polyline fill="#33B1E8" points="8.572,25.714 8.572,25.714 8.572,30 12.857,30 8.572,25.714 	"/>
	<polyline fill="#009EE2" points="25.714,25.714 21.429,30 25.714,30 25.714,25.714 	"/>
	<polyline fill="#66C5EE" points="30,25.714 30,25.714 25.714,25.714 25.714,30 30,30 30,25.714 	"/>
	<polyline fill="#66C5EE" points="34.284,25.714 30,25.714 30,30 34.284,30 34.284,25.714 	"/>
	<polyline fill="#33B1E8" points="12.857,30 12.857,30 8.572,30 8.572,34.285 12.857,34.285 12.857,30 	"/>
	<polyline fill="#33B1E8" points="12.857,30 12.857,34.285 17.143,34.285 12.857,30 	"/>
	<polyline fill="#009EE2" points="21.429,30 17.143,34.285 21.429,34.285 21.429,30 	"/>
	<polyline fill="#009EE2" points="25.714,30 25.714,30 21.429,30 21.429,34.285 25.714,34.285 25.714,30 	"/>
	<polyline fill="#66C5EE" points="30,30 30,30 25.714,30 25.714,34.285 30,34.285 30,30 	"/>
	<polyline fill="#66C5EE" points="34.284,30 30,30 30,34.285 34.284,34.285 34.284,30 	"/>
	<polyline fill="#009EE2" points="12.857,34.285 12.857,34.285 8.572,34.285 8.572,38.57 12.857,38.57 12.857,34.285 	"/>
	<polyline fill="#009EE2" points="17.143,34.285 17.143,34.285 12.857,34.285 12.857,38.57 17.143,38.57 17.143,34.285 	"/>
	<polyline fill="#33B1E8" points="21.429,34.285 21.429,34.285 17.143,34.285 17.143,38.57 21.429,38.57 21.429,34.285 	"/>
	<polyline fill="#33B1E8" points="25.714,34.285 25.714,34.285 21.429,34.285 21.429,38.57 25.714,38.57 25.714,34.285 	"/>
	<polyline fill="#009EE2" points="30,34.285 30,34.285 25.714,34.285 25.714,38.57 30,38.57 30,34.285 	"/>
	<polyline fill="#009EE2" points="34.284,34.285 30,34.285 30,38.57 34.284,38.57 34.284,34.285 	"/>
	<polyline fill="#66C5EE" points="12.857,8.571 12.857,8.571 8.572,8.571 8.572,12.857 12.857,12.857 12.857,8.571 	"/>
	<polyline fill="#66C5EE" points="17.143,8.571 17.143,8.571 12.857,8.571 12.857,12.857 17.143,12.857 17.143,8.571 	"/>
	<polyline fill="#009EE2" points="21.429,8.571 21.429,8.571 17.143,8.571 17.143,12.857 21.429,12.857 21.429,8.571 	"/>
	<polyline fill="#009EE2" points="25.714,8.571 25.714,8.571 21.429,8.571 21.429,12.857 25.714,12.857 25.714,8.571 	"/>
	<polyline fill="#33B1E8" points="30,8.571 30,8.571 25.714,8.571 25.714,12.857 30,12.857 30,8.571 	"/>
	<polyline fill="#33B1E8" points="34.284,8.571 30,8.571 30,12.857 34.284,12.857 34.284,8.571 	"/>
	<polyline fill="#009EE2" points="8.572,8.571 8.572,8.571 4.286,8.571 4.286,12.857 8.572,12.857 8.572,8.571 	"/>
	<polyline fill="#66C5EE" points="12.857,12.857 12.857,12.857 8.572,12.857 8.572,17.143 12.857,17.143 12.857,12.857 	"/>
	<polyline fill="#66C5EE" points="17.143,12.857 17.143,12.857 12.857,12.857 12.857,17.143 17.143,17.143 17.143,12.857 	"/>
	<polyline fill="#009EE2" points="21.429,12.857 21.429,12.857 17.143,12.857 17.143,17.143 21.429,17.143 21.429,12.857 	"/>
	<polyline fill="#009EE2" points="25.714,12.857 25.714,12.857 21.429,12.857 21.429,17.143 25.714,17.143 25.714,12.857 	"/>
	<polyline fill="#33B1E8" points="30,12.857 30,12.857 25.714,12.857 25.714,17.143 30,17.143 30,12.857 	"/>
	<polyline fill="#33B1E8" points="34.284,12.857 30,12.857 30,17.143 34.284,17.143 34.284,12.857 	"/>
	<polyline fill="#009EE2" points="8.572,12.857 8.572,12.857 4.286,12.857 4.286,17.143 8.572,17.143 8.572,12.857 	"/>
	<polyline fill="#33B1E8" points="8.572,17.143 4.286,17.143 4.286,21.428 8.572,21.428 8.572,17.143 	"/>
	<polyline fill="#33B1E8" points="8.572,21.428 4.286,21.428 4.286,25.714 8.572,25.714 8.572,21.428 	"/>
	<polyline fill="#009EE2" points="8.572,25.714 8.572,25.714 4.286,25.714 4.286,30 8.572,30 8.572,25.714 	"/>
	<polyline fill="#009EE2" points="8.572,30 8.572,30 4.286,30 4.286,34.285 8.572,34.285 8.572,30 	"/>
	<polyline fill="#66C5EE" points="8.572,34.285 4.286,34.285 4.286,38.57 8.572,38.57 8.572,34.285 	"/>
	<polyline fill="#009EE2" points="12.857,38.57 12.857,38.57 8.572,38.57 8.572,42.857 12.857,42.857 12.857,38.57 	"/>
	<polyline fill="#009EE2" points="17.143,38.57 17.143,38.57 12.857,38.57 12.857,42.857 17.143,42.857 17.143,38.57 	"/>
	<polyline fill="#33B1E8" points="21.429,38.57 21.429,38.57 17.143,38.57 17.143,42.857 21.429,42.857 21.429,38.57 	"/>
	<polyline fill="#33B1E8" points="25.714,38.57 25.714,38.57 21.429,38.57 21.429,42.857 25.714,42.857 25.714,38.57 	"/>
	<polyline fill="#009EE2" points="30,38.57 30,38.57 25.714,38.57 25.714,42.857 30,42.857 30,38.57 	"/>
	<polyline fill="#009EE2" points="34.284,38.57 30,38.57 30,42.857 34.284,42.857 34.284,38.57 	"/>
	<polyline fill="#66C5EE" points="8.572,38.57 4.286,38.57 4.286,42.857 8.572,42.857 8.572,38.57 	"/>
	<polyline fill="#009EE2" points="4.286,8.571 4.286,8.571 0,8.571 0,12.857 4.286,12.857 4.286,8.571 	"/>
	<polyline fill="#009EE2" points="4.286,12.857 4.286,12.857 0,12.857 0,17.143 4.286,17.143 4.286,12.857 	"/>
	<polyline fill="#33B1E8" points="4.286,17.143 0,17.143 0,21.428 4.286,21.428 4.286,17.143 	"/>
	<polyline fill="#33B1E8" points="4.286,21.428 0,21.428 0,25.714 4.286,25.714 4.286,21.428 	"/>
	<polyline fill="#009EE2" points="4.286,25.714 4.286,25.714 0,25.714 0,30 4.286,30 4.286,25.714 	"/>
	<polyline fill="#009EE2" points="4.286,30 4.286,30 0,30 0,34.285 4.286,34.285 4.286,30 	"/>
	<polyline fill="#66C5EE" points="4.286,34.285 0,34.285 0,38.57 4.286,38.57 4.286,34.285 	"/>
	<polyline fill="#66C5EE" points="4.286,38.57 0,38.57 0,42.857 4.286,42.857 4.286,38.57 	"/>
	<polyline fill="#66C5EE" points="12.857,42.857 12.857,42.857 8.572,42.857 8.572,47.143 12.857,47.143 12.857,42.857 	"/>
	<polyline fill="#66C5EE" points="17.143,42.857 17.143,42.857 12.857,42.857 12.857,47.143 17.143,47.143 17.143,42.857 	"/>
	<polyline fill="#009EE2" points="21.429,42.857 21.429,42.857 17.143,42.857 17.143,47.143 21.429,47.143 21.429,42.857 	"/>
	<polyline fill="#009EE2" points="25.714,42.857 25.714,42.857 21.429,42.857 21.429,47.143 25.714,47.143 25.714,42.857 	"/>
	<polyline fill="#33B1E8" points="30,42.857 30,42.857 25.714,42.857 25.714,47.143 30,47.143 30,42.857 	"/>
	<polyline fill="#33B1E8" points="34.284,42.857 30,42.857 30,47.143 34.284,47.143 34.284,42.857 	"/>
	<polyline fill="#66C5EE" points="17.143,47.143 17.143,47.143 12.857,47.143 12.857,51.428 17.143,51.428 17.143,47.143 	"/>
	<polyline fill="#009EE2" points="8.572,42.857 8.572,42.857 4.286,42.857 4.286,47.143 8.572,47.143 8.572,42.857 	"/>
	<polyline fill="#66C5EE" points="12.857,47.143 12.857,47.143 8.572,47.143 8.572,51.428 12.857,51.428 12.857,47.143 	"/>
	<polyline fill="#66C5EE" points="12.857,51.428 8.572,51.428 8.572,55.714 12.857,55.714 12.857,51.428 	"/>
	<polyline fill="#66C5EE" points="17.143,51.428 12.857,51.428 12.857,55.714 17.143,51.428 	"/>
	<polyline fill="#66C5EE" points="12.857,55.714 8.572,55.714 8.572,60 12.857,55.714 	"/>
	<polyline fill="#009EE2" points="21.429,47.143 21.429,47.143 17.143,47.143 17.143,51.428 21.429,51.428 21.429,47.143 	"/>
	<polyline fill="#009EE2" points="25.714,47.143 25.714,47.143 21.429,47.143 21.429,51.428 25.714,51.428 25.714,47.143 	"/>
	<polyline fill="#33B1E8" points="30,47.143 30,47.143 25.714,47.143 25.714,51.428 30,51.428 30,47.143 	"/>
	<polyline fill="#009EE2" points="34.284,0 30,0 30,4.286 34.284,4.286 34.286,4.286 34.284,4.286 34.284,0 	"/>
	<polyline fill="#33B1E8" points="34.284,47.143 30,47.143 30,51.428 34.286,51.428 34.284,51.428 34.284,47.143 	"/>
	<polyline fill="#F29100" points="47.142,4.286 42.854,4.286 42.854,8.571 47.142,8.571 47.142,4.286 	"/>
	<polyline fill="#F5A733" points="42.854,4.286 38.569,4.286 38.572,4.286 38.572,8.571 42.854,8.571 42.854,4.286 	"/>
	<polyline fill="#608130" points="38.572,4.286 38.569,4.286 38.569,8.571 38.572,8.571 38.572,4.286 	"/>
	<polyline fill="#F29100" points="51.427,4.286 47.142,4.286 47.142,8.571 51.427,8.571 51.427,4.286 	"/>
	<polyline fill="#F7BD66" points="55.712,4.286 51.427,4.286 51.427,8.571 55.712,8.571 55.712,4.286 	"/>
	<polyline fill="#F7BD66" points="59.998,4.286 55.712,4.286 55.712,8.571 59.998,8.571 59.998,4.286 	"/>
	<polyline fill="#005A00" points="38.572,8.571 38.569,8.571 38.569,12.857 38.572,12.857 38.572,8.571 	"/>
	<polyline fill="#005A00" points="42.854,8.571 38.572,8.571 38.572,12.857 42.854,12.857 42.854,8.571 	"/>
	<polyline fill="#F5A733" points="51.427,8.571 47.142,8.571 47.142,12.857 51.427,8.571 	"/>
	<polyline fill="#F29100" points="55.712,8.571 55.712,8.571 51.427,8.571 55.712,12.857 55.712,8.571 	"/>
	<polyline fill="#F29100" points="59.998,8.571 59.998,8.571 55.712,8.571 55.712,12.857 59.998,8.571 	"/>
	<polyline fill="#F7BD66" points="64.284,8.571 59.998,8.571 64.284,12.857 64.284,8.571 	"/>
	<polyline fill="#F5A733" points="47.142,8.571 47.142,8.571 42.854,8.571 42.857,8.571 42.857,12.857 47.142,12.857 47.142,8.571 	
		"/>
	<polyline fill="#00682D" points="42.857,8.571 42.854,8.571 42.854,12.857 42.857,12.857 42.857,8.571 	"/>
	<polyline fill="#F29100" points="64.284,4.286 59.998,4.286 59.998,8.571 64.284,8.571 64.284,4.286 	"/>
	<polyline fill="#F29100" points="47.142,0 42.854,0 42.854,4.286 47.142,4.286 47.142,0 	"/>
	<polyline fill="#F5A733" points="42.854,0 38.569,0 38.569,4.286 42.854,4.286 42.854,0 	"/>
	<polyline fill="#F29100" points="51.427,0 47.142,0 47.142,4.286 51.427,4.286 51.427,0 	"/>
	<polyline fill="#F7BD66" points="55.712,0 51.427,0 51.427,4.286 55.712,4.286 55.712,0 	"/>
	<polyline fill="#F7BD66" points="59.998,0 55.712,0 55.712,4.286 59.998,4.286 59.998,0 	"/>
	<polyline fill="#F29100" points="64.284,0 59.998,0 59.998,4.286 64.284,4.286 64.284,0 	"/>
	<polyline fill="#005A00" points="38.572,12.857 38.572,12.857 38.569,12.857 38.569,17.143 38.572,17.143 38.572,12.857 	"/>
	<polyline fill="#005A00" points="42.854,12.857 38.572,12.857 38.572,17.143 42.854,17.143 42.854,12.857 	"/>
	<polyline fill="#F5A733" points="47.142,12.857 47.142,12.857 47.142,17.143 51.427,17.143 47.142,12.857 	"/>
	<polyline fill="#F7BD66" points="64.284,12.857 64.284,12.857 59.998,17.143 64.284,17.143 64.284,12.857 	"/>
	<polyline fill="#F5A733" points="47.142,12.857 42.857,12.857 42.857,17.143 47.142,17.143 47.142,12.857 	"/>
	<polyline fill="#00682D" points="42.857,12.857 42.857,12.857 42.854,12.857 42.854,17.143 42.857,17.143 42.857,12.857 	"/>
	<polyline fill="#31845D" points="38.572,17.143 38.569,17.143 38.569,21.428 38.572,21.428 38.572,17.143 	"/>
	<polyline fill="#31845D" points="42.854,17.143 38.572,17.143 38.572,21.428 42.854,21.428 42.854,17.143 	"/>
	<polyline fill="#F29100" points="51.427,17.143 51.427,17.143 47.142,17.143 47.142,21.428 51.427,17.143 	"/>
	<polyline fill="#F29100" points="64.284,17.143 64.284,17.143 59.998,17.143 64.284,21.428 64.284,17.143 	"/>
	<polyline fill="#F29100" points="47.142,17.143 47.142,17.143 42.857,17.143 42.854,17.143 42.857,17.143 42.857,21.428 
		47.142,21.428 47.142,17.143 	"/>
	<polyline fill="#306500" points="42.857,17.143 42.854,17.143 42.854,21.428 42.857,21.428 42.857,17.143 	"/>
	<polyline fill="#31845D" points="38.572,21.428 38.572,21.428 38.569,21.428 38.569,25.714 38.572,25.714 38.572,21.428 	"/>
	<polyline fill="#31845D" points="42.854,21.428 38.572,21.428 38.572,25.714 42.854,25.714 42.854,21.428 	"/>
	<polyline fill="#F29100" points="47.142,21.428 47.142,25.714 51.427,25.714 47.142,21.428 	"/>
	<polyline fill="#F5A733" points="55.712,21.428 51.427,25.714 55.712,25.714 55.712,21.428 	"/>
	<polyline fill="#F5A733" points="55.712,21.428 55.712,25.714 59.998,25.714 55.712,21.428 	"/>
	<polyline fill="#F29100" points="64.284,21.428 64.284,21.428 59.998,25.714 64.284,25.714 64.284,21.428 	"/>
	<polyline fill="#005A00" points="38.572,25.714 38.572,25.714 38.569,25.714 38.569,30 38.572,30 38.572,25.714 	"/>
	<polyline fill="#005A00" points="42.854,25.714 38.572,25.714 38.572,30 42.854,30 42.854,25.714 	"/>
	<polyline fill="#F7BD66" points="47.142,25.714 42.857,25.714 42.857,30 47.142,30 47.142,25.714 	"/>
	<polyline fill="#00755A" points="42.857,25.714 42.857,25.714 42.854,25.714 42.854,30 42.857,30 42.857,25.714 	"/>
	<polyline fill="#F7BD66" points="51.427,25.714 51.427,25.714 47.142,25.714 47.142,30 51.427,30 51.427,25.714 	"/>
	<polyline fill="#F7BD66" points="51.427,30 51.427,30 47.142,30 47.142,34.285 51.427,34.285 51.427,30 	"/>
	<polyline fill="#F29100" points="51.427,34.285 51.427,34.285 47.142,34.285 47.142,38.57 51.427,38.57 51.427,34.285 	"/>
	<polyline fill="#F29100" points="55.712,25.714 55.712,25.714 51.427,25.714 51.427,30 55.712,30 55.712,25.714 	"/>
	<polyline fill="#F29100" points="59.998,25.714 59.998,25.714 55.712,25.714 55.712,30 59.998,30 59.998,25.714 	"/>
	<polyline fill="#F29100" points="47.142,21.428 47.142,21.428 42.857,21.428 42.857,25.714 47.142,25.714 47.142,21.428 	"/>
	<polyline fill="#306500" points="42.857,21.428 42.857,21.428 42.854,21.428 42.854,25.714 42.857,25.714 42.857,21.428 	"/>
	<polyline fill="#F5A733" points="64.284,25.714 64.284,25.714 59.998,25.714 59.998,30 64.284,30 64.284,25.714 	"/>
	<polyline fill="#F7BD66" points="68.569,8.571 64.284,8.571 64.284,12.857 68.569,12.857 68.569,8.571 	"/>
	<polyline fill="#F29100" points="68.569,4.286 64.284,4.286 64.284,8.571 68.569,8.571 68.569,4.286 	"/>
	<polyline fill="#F7BD66" points="68.569,12.857 68.569,12.857 64.284,12.857 64.284,17.143 68.569,17.143 68.569,12.857 	"/>
	<polyline fill="#F29100" points="68.569,17.143 68.569,17.143 64.284,17.143 64.284,21.428 68.569,21.428 68.569,17.143 	"/>
	<polyline fill="#F29100" points="68.569,21.428 68.569,21.428 64.284,21.428 64.284,25.714 68.569,25.714 68.569,21.428 	"/>
	<polyline fill="#F5A733" points="68.569,25.714 68.569,25.714 64.284,25.714 64.284,30 68.569,30 68.569,25.714 	"/>
	<polyline fill="#F29100" points="55.712,30 55.712,30 51.427,30 51.427,34.285 55.712,34.285 55.712,30 	"/>
	<polyline fill="#F29100" points="59.998,30 59.998,30 55.712,30 55.712,34.285 59.998,34.285 59.998,30 	"/>
	<polyline fill="#F5A733" points="64.284,30 64.284,30 59.998,30 59.998,34.285 64.284,34.285 64.284,30 	"/>
	<polyline fill="#F29100" points="68.569,0 64.284,0 64.284,4.286 68.569,4.286 68.569,0 	"/>
	<polyline fill="#F5A733" points="72.854,4.286 68.569,4.286 68.569,8.571 72.854,8.571 72.854,4.286 	"/>
	<polyline fill="#F29100" points="72.854,25.714 68.569,25.714 68.569,30 72.854,30 72.854,25.714 	"/>
	<polyline fill="#F5A733" points="68.569,30 68.569,30 64.284,30 64.284,34.285 68.569,34.285 68.569,30 	"/>
	<polyline fill="#F29100" points="72.854,8.571 72.854,8.571 68.569,8.571 68.569,12.857 72.854,12.857 72.854,8.571 	"/>
	<polyline fill="#F29100" points="72.854,12.857 72.854,12.857 68.569,12.857 68.569,17.143 72.854,17.143 72.854,12.857 	"/>
	<polyline fill="#F7BD66" points="72.854,17.143 72.854,17.143 68.569,17.143 68.569,21.428 72.854,21.428 72.854,17.143 	"/>
	<polyline fill="#F7BD66" points="72.854,21.428 72.854,21.428 68.569,21.428 68.569,25.714 72.854,25.714 72.854,21.428 	"/>
	<polyline fill="#F29100" points="77.142,8.571 72.854,8.571 72.854,12.857 77.142,12.857 77.142,8.571 	"/>
	<polyline fill="#F29100" points="77.142,12.857 77.142,12.857 72.854,12.857 72.854,17.143 77.142,17.143 77.142,12.857 	"/>
	<polyline fill="#F7BD66" points="77.142,17.143 77.142,17.143 72.854,17.143 72.854,21.428 77.142,21.428 77.142,17.143 	"/>
	<polyline fill="#F7BD66" points="77.142,21.428 77.142,21.428 72.854,21.428 72.854,25.714 77.142,25.714 77.142,21.428 	"/>
	<polyline fill="#005A00" points="38.572,30 38.572,30 38.569,30 38.569,34.285 38.572,34.285 38.572,30 	"/>
	<polyline fill="#005A00" points="42.854,30 38.572,30 38.572,34.285 42.854,34.285 42.854,30 	"/>
	<polyline fill="#F7BD66" points="47.142,30 47.142,30 42.857,30 42.857,34.285 47.142,34.285 47.142,30 	"/>
	<polyline fill="#00755A" points="42.857,30 42.857,30 42.854,30 42.854,34.285 42.857,34.285 42.857,30 	"/>
	<polyline fill="#617000" points="42.857,34.285 42.857,34.285 42.854,34.285 42.854,38.57 42.857,38.57 42.857,34.285 	"/>
	<polyline fill="#F29100" points="47.142,34.285 47.142,34.285 42.857,34.285 42.857,38.57 47.142,38.57 47.142,34.285 	"/>
	<polyline fill="#608130" points="38.572,34.285 38.572,34.285 38.569,34.285 38.569,38.57 38.572,38.57 38.572,34.285 	"/>
	<polyline fill="#608130" points="42.854,34.285 38.572,34.285 38.572,38.57 42.854,38.57 42.854,34.285 	"/>
	<polyline fill="#F29100" points="51.427,38.57 51.427,38.57 47.142,38.57 47.142,42.857 51.427,42.857 51.427,38.57 	"/>
	<polyline fill="#608130" points="38.572,38.57 38.572,38.57 38.569,38.57 38.569,42.857 38.572,42.857 38.572,38.57 	"/>
	<polyline fill="#608130" points="42.854,38.57 38.572,38.57 38.572,42.857 42.854,42.857 42.854,38.57 	"/>
	<polyline fill="#F29100" points="47.142,38.57 47.142,38.57 42.857,38.57 42.857,42.857 47.142,42.857 47.142,38.57 	"/>
	<polyline fill="#617000" points="42.857,38.57 42.857,38.57 42.854,38.57 42.854,42.857 42.857,42.857 42.857,38.57 	"/>
	<polyline fill="#F5A733" points="47.142,42.857 42.857,42.857 42.854,42.857 42.854,47.143 47.142,47.143 47.142,42.857 	"/>
	<polyline fill="#F5A733" points="47.142,47.143 47.142,47.143 42.854,47.143 42.854,51.428 47.142,51.428 47.142,47.143 	"/>
	<polyline fill="#F5A733" points="51.427,42.857 51.427,42.857 47.142,42.857 47.142,47.143 51.427,47.143 51.427,42.857 	"/>
	<polyline fill="#F29100" points="42.854,42.857 38.572,42.857 38.572,47.143 42.854,47.143 42.854,42.857 	"/>
	<polyline fill="#005A00" points="38.572,42.857 38.572,42.857 38.569,42.857 38.569,47.143 38.572,47.143 38.572,42.857 	"/>
	<polyline fill="#F29100" points="42.854,47.143 42.854,47.143 38.572,47.143 38.569,47.143 38.569,51.428 42.854,51.428 
		42.854,47.143 	"/>
	<polyline fill="#00682D" points="34.286,4.286 34.284,4.286 34.284,8.571 34.286,8.571 34.286,4.286 	"/>
	<polyline fill="#608130" points="38.569,4.286 34.286,4.286 34.286,8.571 38.569,8.571 38.569,4.286 	"/>
	<polyline fill="#306500" points="34.286,8.571 34.286,8.571 34.284,8.571 34.284,12.857 34.286,12.857 34.286,8.571 	"/>
	<polyline fill="#005A00" points="38.569,8.571 34.286,8.571 34.286,12.857 38.569,12.857 38.569,8.571 	"/>
	<polyline fill="#F5A733" points="38.569,0 34.284,0 34.286,0 34.286,4.286 38.569,4.286 38.569,0 	"/>
	<polyline fill="#00682D" points="34.286,0 34.284,0 34.284,4.286 34.286,4.286 34.286,0 	"/>
	<polyline fill="#306500" points="34.286,12.857 34.286,12.857 34.284,12.857 34.284,17.143 34.286,17.143 34.286,12.857 	"/>
	<polyline fill="#005A00" points="38.569,12.857 34.286,12.857 34.286,17.143 38.569,17.143 38.569,12.857 	"/>
	<polyline fill="#F7BD66" points="38.569,17.143 34.286,17.143 34.284,17.143 34.284,17.145 34.286,17.143 34.286,21.428 
		34.286,17.143 38.569,17.143 	"/>
	<polyline fill="#00755A" points="34.286,17.143 34.284,17.145 34.284,21.428 34.286,21.428 34.286,17.143 	"/>
	<polyline fill="#31845D" points="38.569,17.143 34.286,17.143 34.286,21.428 38.569,21.428 38.569,17.143 	"/>
	<polyline fill="#00755A" points="34.286,21.428 34.284,21.428 34.284,25.714 34.286,25.714 34.286,21.428 	"/>
	<polyline fill="#31845D" points="38.569,21.428 34.286,21.428 34.286,25.714 38.569,25.714 38.569,21.428 	"/>
	<polyline fill="#617000" points="34.286,25.714 34.286,25.714 34.284,25.714 34.284,30 34.286,30 34.286,25.714 	"/>
	<polyline fill="#005A00" points="38.569,25.714 34.286,25.714 34.286,30 38.569,30 38.569,25.714 	"/>
	<polyline fill="#617000" points="34.286,30 34.286,30 34.284,30 34.284,34.285 34.286,34.285 34.286,30 	"/>
	<polyline fill="#005A00" points="38.569,30 34.286,30 34.286,34.285 38.569,34.285 38.569,30 	"/>
	<polyline fill="#00682D" points="34.286,34.285 34.284,34.285 34.284,38.57 34.286,38.57 34.286,34.285 	"/>
	<polyline fill="#608130" points="38.569,34.285 34.286,34.285 34.286,38.57 38.569,38.57 38.569,34.285 	"/>
	<polyline fill="#00682D" points="34.286,38.57 34.284,38.57 34.284,42.857 34.286,42.857 34.286,38.57 	"/>
	<polyline fill="#608130" points="38.569,38.57 34.286,38.57 34.286,42.857 38.569,42.857 38.569,38.57 	"/>
	<polyline fill="#F5A733" points="51.427,47.143 51.427,47.143 47.142,47.143 47.142,51.428 51.427,51.428 51.427,47.143 	"/>
	<polyline fill="#306500" points="34.286,42.857 34.286,42.857 34.284,42.857 34.284,47.143 34.286,47.143 34.286,42.857 	"/>
	<polyline fill="#005A00" points="38.569,42.857 34.286,42.857 34.286,47.143 38.569,47.143 38.569,42.857 	"/>
	<polyline fill="#F29100" points="38.569,47.143 34.286,47.143 34.286,51.428 38.569,51.428 38.569,47.143 	"/>
	<polyline fill="#306500" points="34.286,47.143 34.286,47.143 34.284,47.143 34.284,51.428 34.286,51.428 34.286,47.143 	"/>
</g>
<g>
	<g>
		<path fill="#525257" d="M111.207,31.359v9.674c0,7.302-6.977,10.465-12.512,10.465H88.276c-1.07,0-1.349-0.512-1.349-1.35V22.243
			c0-0.837,0.279-1.349,1.349-1.349h10.418C104.229,20.894,111.207,24.104,111.207,31.359z M103.904,32.012
			c0-2.932-2.14-4.652-5.209-4.652H94.23v17.674h4.465c3.07,0,5.209-1.675,5.209-4.651V32.012z"/>
		<path fill="#525257" d="M131.438,46.477v3.674c0,0.838-0.279,1.349-1.349,1.349h-13.163c-1.07,0-1.348-0.511-1.348-1.349v-3.674
			c0-0.838,0.278-1.35,1.348-1.35h2.931V27.359h-2.837c-1.07,0-1.349-0.512-1.349-1.349v-3.768c0-0.837,0.279-1.349,1.349-1.349
			h12.931c1.069,0,1.348,0.511,1.348,1.349v3.768c0,0.837-0.279,1.349-1.348,1.349h-2.791v17.768h2.93
			C131.159,45.127,131.438,45.639,131.438,46.477z"/>
		<path fill="#525257" d="M161.156,35.777v6.746c-0.42,6.697-7.209,9.674-12.512,9.674c-5.488,0-12.512-2.791-12.512-10.094V30.661
			c0-7.349,7.023-10.465,12.512-10.465c5.813,0,12.512,3.349,12.512,9.582c0,1.117-0.279,1.303-1.35,1.303h-4.511
			c-1.303,0-1.116-0.931-1.349-1.582c-0.512-1.442-2.188-2.837-5.303-2.837c-3.069,0-5.117,2.046-5.117,5.023v9.349
			c0,2.978,2.047,4.698,5.117,4.698c3.022,0,5.162-1.396,5.162-4.978h-4.186c-1.07,0-1.35-0.512-1.35-1.349v-3.629
			c0-0.836,0.279-1.348,1.35-1.348h10.186C160.877,34.43,161.156,34.939,161.156,35.777z"/>
		<path fill="#525257" d="M181.762,46.477v3.674c0,0.838-0.277,1.349-1.349,1.349H167.25c-1.07,0-1.35-0.511-1.35-1.349v-3.674
			c0-0.838,0.279-1.35,1.35-1.35h2.93V27.359h-2.837c-1.069,0-1.349-0.512-1.349-1.349v-3.768c0-0.837,0.279-1.349,1.349-1.349
			h12.931c1.069,0,1.349,0.511,1.349,1.349v3.768c0,0.837-0.279,1.349-1.349,1.349h-2.791v17.768h2.93
			C181.482,45.127,181.762,45.639,181.762,46.477z"/>
		<path fill="#525257" d="M209.622,22.243v3.86c0,0.837-0.279,1.349-1.349,1.349h-7.117v22.696c0,1.07-0.512,1.35-1.35,1.35h-4.604
			c-0.837,0-1.35-0.279-1.35-1.35V27.452h-7.162c-1.07,0-1.35-0.512-1.35-1.349v-3.86c0-0.837,0.278-1.349,1.35-1.349h21.582
			C209.342,20.894,209.622,21.405,209.622,22.243z"/>
		<path fill="#525257" d="M236.925,51.499h-4.883c-1.022,0-1.396-0.278-1.769-1.396l-1.303-3.674h-11.395l-1.303,3.674
			c-0.373,1.117-0.746,1.396-1.768,1.396h-4.885c-1.021,0-1.021-0.744-0.79-1.302l10.326-27.861
			c0.372-0.977,0.883-1.442,1.907-1.442h4.465c1.023,0,1.488,0.465,1.906,1.442l10.279,27.861
			C237.947,50.754,237.947,51.499,236.925,51.499z M226.786,39.917l-3.489-10.279l-3.488,10.279H226.786z"/>
		<path fill="#525257" d="M263.904,46.336v3.812c0,0.838-0.279,1.35-1.35,1.35h-19.35c-1.07,0-1.35-0.512-1.35-1.35V22.243
			c0-1.069,0.513-1.349,1.35-1.349h4.604c0.836,0,1.35,0.279,1.35,1.349v22.745h13.396
			C263.625,44.986,263.904,45.499,263.904,46.336z"/>
	</g>
</g>
<g enable-background="new    ">
	<path fill="#009EE2" d="M94.593,6.018c0,2.049-1.945,2.931-3.489,2.931s-3.463-0.882-3.463-2.931V2.956
		c0-2.049,1.919-2.931,3.463-2.931s3.489,0.882,3.489,2.931V6.018z M92.557,3.138c0-0.83-0.597-1.31-1.453-1.31
		c-0.843,0-1.439,0.479-1.439,1.31v2.698c0,0.83,0.597,1.31,1.439,1.31c0.856,0,1.453-0.479,1.453-1.31V3.138z"/>
	<path fill="#009EE2" d="M103.045,8.754h-1.53c-0.312,0-0.467-0.117-0.648-0.389l-1.401-2.089c-0.117-0.155-0.143-0.298-0.143-0.661
		V4.577c0-0.233,0.078-0.376,0.376-0.376h0.259c0.636,0,1.232-0.44,1.232-1.051c0-0.674-0.519-1.102-1.193-1.102h-1.725v6.329
		c0,0.298-0.143,0.376-0.376,0.376h-1.284c-0.233,0-0.363-0.078-0.363-0.376v-7.77c0-0.233,0.064-0.376,0.363-0.376h3.269
		c1.414,0,2.036,0.285,2.581,0.83c0.48,0.467,0.752,1.206,0.752,2.036c0,1.362-0.999,2.309-1.803,2.581l1.829,2.659
		C103.356,8.521,103.292,8.754,103.045,8.754z"/>
	<path fill="#009EE2" d="M108.89,8.857l-0.194,0.467c1.984,0.208,1.634,3.113-0.415,3.113h-0.869c-0.532,0-0.959-0.182-1.245-0.48
		c-0.583-0.583,0.286-1.439,0.869-0.882c0.104,0.091,0.247,0.169,0.402,0.169h0.817c0.571,0,0.597-0.973,0-0.999h-0.934
		c-0.22,0-0.272-0.143-0.181-0.363l0.467-0.959c-1.44-0.169-2.996-1.063-2.996-2.905V2.956c0-2.036,1.933-2.931,3.476-2.931
		c1.608,0,3.204,0.816,3.372,2.464c0,0.312-0.104,0.376-0.402,0.376h-1.245c-0.272,0-0.285-0.246-0.389-0.401
		c-0.272-0.429-0.635-0.623-1.335-0.623c-0.856,0-1.44,0.479-1.44,1.297v2.698c0,0.83,0.583,1.297,1.44,1.297
		c0.7,0,1.258-0.26,1.362-0.882c0.039-0.26,0.064-0.467,0.35-0.467h1.271c0.285,0,0.389,0.129,0.389,0.44
		C111.458,7.626,110.226,8.572,108.89,8.857z"/>
	<path fill="#009EE2" d="M120.196,8.754h-1.362c-0.285,0-0.389-0.078-0.493-0.389l-0.363-1.025h-3.178l-0.363,1.025
		c-0.104,0.311-0.208,0.389-0.493,0.389h-1.362c-0.285,0-0.285-0.207-0.22-0.363l2.879-7.769c0.104-0.272,0.246-0.402,0.532-0.402
		h1.245c0.285,0,0.415,0.13,0.532,0.402l2.866,7.769C120.482,8.547,120.482,8.754,120.196,8.754z M117.369,5.524l-0.973-2.866
		l-0.973,2.866H117.369z"/>
	<path fill="#009EE2" d="M129.596,0.583v7.795c0,0.298-0.143,0.376-0.376,0.376h-1.245c-0.234,0-0.376-0.078-0.376-0.376V3.98
		l-1.297,2.271c-0.065,0.104-0.182,0.272-0.376,0.272h-0.649c-0.194,0-0.298-0.169-0.363-0.272l-1.31-2.271v4.397
		c0,0.298-0.143,0.376-0.376,0.376h-1.284c-0.233,0-0.376-0.078-0.376-0.376V0.583c0-0.233,0.078-0.376,0.376-0.376h1.284
		c0.441,0,0.493,0.285,0.597,0.44l1.777,3.19l1.79-3.19c0.091-0.155,0.156-0.44,0.584-0.44h1.245
		C129.518,0.207,129.596,0.35,129.596,0.583z"/>
	<path fill="#009EE2" d="M138.073,7.314v1.063c0,0.233-0.077,0.376-0.376,0.376h-5.811c-0.298,0-0.376-0.143-0.376-0.376V0.596
		c0-0.233,0.078-0.376,0.376-0.376h5.59c0.299,0,0.377,0.143,0.377,0.376v1.076c0,0.234-0.078,0.377-0.377,0.377h-3.917v1.413h3.476
		c0.299,0,0.377,0.143,0.377,0.376V4.85c0,0.233-0.078,0.377-0.377,0.377h-3.476v1.712h4.138
		C137.996,6.938,138.073,7.081,138.073,7.314z"/>
	<path fill="#009EE2" d="M146.564,0.596v7.782c0,0.233-0.077,0.376-0.375,0.376h-1.181c-0.325,0-0.415-0.182-0.584-0.441
		l-2.749-4.448v4.514c0,0.298-0.143,0.376-0.377,0.376h-1.283c-0.234,0-0.377-0.078-0.377-0.376V0.596
		c0-0.233,0.078-0.376,0.377-0.376h1.219c0.324,0,0.415,0.182,0.584,0.44l2.749,4.437V0.596c0-0.298,0.144-0.376,0.376-0.376h1.246
		C146.422,0.22,146.564,0.298,146.564,0.596z"/>
	<path fill="#009EE2" d="M154.628,0.596v1.076c0,0.234-0.077,0.377-0.376,0.377h-1.984v6.329c0,0.298-0.143,0.376-0.376,0.376
		h-1.284c-0.233,0-0.376-0.078-0.376-0.376V2.049h-1.997c-0.299,0-0.377-0.143-0.377-0.377V0.596c0-0.233,0.078-0.376,0.377-0.376
		h6.018C154.551,0.22,154.628,0.362,154.628,0.596z"/>
	<path fill="#009EE2" d="M162.627,6.018c0,2.049-1.945,2.931-3.489,2.931s-3.463-0.882-3.463-2.931V2.956
		c0-2.049,1.919-2.931,3.463-2.931s3.489,0.882,3.489,2.931V6.018z M160.59,3.138c0-0.83-0.596-1.31-1.452-1.31
		c-0.843,0-1.439,0.479-1.439,1.31v2.698c0,0.83,0.597,1.31,1.439,1.31c0.856,0,1.452-0.479,1.452-1.31V3.138z"/>
</g>
<g enable-background="new    ">
	<path fill="#F29100" d="M174.489,3.229c0,1.803-1.193,2.996-3.411,2.996h-1.245v2.153c0,0.298-0.143,0.376-0.376,0.376h-1.284
		c-0.233,0-0.376-0.078-0.376-0.376V0.596c0-0.233,0.078-0.376,0.376-0.376h2.918C173.322,0.22,174.489,1.438,174.489,3.229z
		 M172.531,3.268c0-0.675-0.441-1.219-1.453-1.219h-1.245v2.425h1.245C172.09,4.474,172.531,3.916,172.531,3.268z"/>
	<path fill="#F29100" d="M182.385,8.754h-1.362c-0.285,0-0.389-0.078-0.493-0.389l-0.363-1.025h-3.178l-0.362,1.025
		c-0.104,0.311-0.208,0.389-0.493,0.389h-1.361c-0.285,0-0.285-0.207-0.221-0.363l2.879-7.769c0.104-0.272,0.246-0.402,0.532-0.402
		h1.245c0.285,0,0.415,0.13,0.531,0.402l2.867,7.769C182.67,8.547,182.67,8.754,182.385,8.754z M179.557,5.524l-0.973-2.866
		l-0.973,2.866H179.557z"/>
	<path fill="#F29100" d="M190.551,8.754h-1.529c-0.312,0-0.467-0.117-0.648-0.389l-1.401-2.089
		c-0.116-0.155-0.143-0.298-0.143-0.661V4.577c0-0.233,0.077-0.376,0.376-0.376h0.26c0.635,0,1.232-0.44,1.232-1.051
		c0-0.674-0.52-1.102-1.193-1.102h-1.726v6.329c0,0.298-0.143,0.376-0.376,0.376h-1.284c-0.233,0-0.362-0.078-0.362-0.376v-7.77
		c0-0.233,0.064-0.376,0.362-0.376h3.269c1.414,0,2.036,0.285,2.581,0.83c0.479,0.467,0.753,1.206,0.753,2.036
		c0,1.362-1,2.309-1.804,2.581l1.829,2.659C190.863,8.521,190.798,8.754,190.551,8.754z"/>
	<path fill="#F29100" d="M198.537,0.596v1.076c0,0.234-0.078,0.377-0.377,0.377h-1.984v6.329c0,0.298-0.143,0.376-0.375,0.376
		h-1.285c-0.232,0-0.375-0.078-0.375-0.376V2.049h-1.998c-0.299,0-0.376-0.143-0.376-0.377V0.596c0-0.233,0.077-0.376,0.376-0.376
		h6.018C198.459,0.22,198.537,0.362,198.537,0.596z"/>
	<path fill="#F29100" d="M203.916,7.354v1.024c0,0.233-0.078,0.376-0.376,0.376h-3.671c-0.299,0-0.376-0.143-0.376-0.376V7.354
		c0-0.233,0.077-0.377,0.376-0.377h0.817V2.022h-0.792c-0.298,0-0.375-0.143-0.375-0.376V0.596c0-0.233,0.077-0.376,0.375-0.376
		h3.606c0.298,0,0.376,0.143,0.376,0.376v1.051c0,0.233-0.078,0.376-0.376,0.376h-0.778v4.954h0.817
		C203.838,6.977,203.916,7.12,203.916,7.354z"/>
	<path fill="#F29100" d="M208.789,8.948c-1.543,0-3.476-0.895-3.476-2.931V2.956c0-2.036,1.933-2.931,3.476-2.931
		c1.608,0,3.204,0.816,3.373,2.464c0,0.312-0.104,0.376-0.402,0.376h-1.246c-0.271,0-0.285-0.246-0.389-0.401
		c-0.271-0.429-0.635-0.623-1.336-0.623c-0.855,0-1.439,0.479-1.439,1.297v2.698c0,0.83,0.584,1.297,1.439,1.297
		c0.701,0,1.258-0.26,1.362-0.882c0.038-0.26,0.064-0.467,0.351-0.467h1.271c0.285,0,0.39,0.129,0.39,0.44
		C212.162,7.897,210.397,8.948,208.789,8.948z"/>
	<path fill="#F29100" d="M217.865,7.354v1.024c0,0.233-0.078,0.376-0.377,0.376h-3.67c-0.299,0-0.377-0.143-0.377-0.376V7.354
		c0-0.233,0.078-0.377,0.377-0.377h0.816V2.022h-0.791c-0.298,0-0.376-0.143-0.376-0.376V0.596c0-0.233,0.078-0.376,0.376-0.376
		h3.605c0.299,0,0.377,0.143,0.377,0.376v1.051c0,0.233-0.078,0.376-0.377,0.376h-0.777v4.954h0.816
		C217.787,6.977,217.865,7.12,217.865,7.354z"/>
	<path fill="#F29100" d="M226.228,3.229c0,1.803-1.193,2.996-3.411,2.996h-1.245v2.153c0,0.298-0.143,0.376-0.376,0.376h-1.284
		c-0.233,0-0.376-0.078-0.376-0.376V0.596c0-0.233,0.078-0.376,0.376-0.376h2.918C225.061,0.22,226.228,1.438,226.228,3.229z
		 M224.27,3.268c0-0.675-0.441-1.219-1.453-1.219h-1.245v2.425h1.245C223.828,4.474,224.27,3.916,224.27,3.268z"/>
	<path fill="#F29100" d="M234.666,8.754h-1.361c-0.285,0-0.389-0.078-0.492-0.389l-0.363-1.025h-3.178l-0.363,1.025
		c-0.104,0.311-0.207,0.389-0.493,0.389h-1.362c-0.285,0-0.285-0.207-0.22-0.363l2.88-7.769c0.104-0.272,0.246-0.402,0.531-0.402
		h1.245c0.285,0,0.415,0.13,0.532,0.402l2.865,7.769C234.952,8.547,234.952,8.754,234.666,8.754z M231.84,5.524l-0.973-2.866
		l-0.974,2.866H231.84z"/>
	<path fill="#F29100" d="M241.641,0.596v1.076c0,0.234-0.077,0.377-0.375,0.377h-1.984v6.329c0,0.298-0.143,0.376-0.377,0.376
		h-1.283c-0.234,0-0.377-0.078-0.377-0.376V2.049h-1.997c-0.298,0-0.376-0.143-0.376-0.377V0.596c0-0.233,0.078-0.376,0.376-0.376
		h6.019C241.563,0.22,241.641,0.362,241.641,0.596z"/>
	<path fill="#F29100" d="M247.02,7.354v1.024c0,0.233-0.078,0.376-0.376,0.376h-3.671c-0.298,0-0.375-0.143-0.375-0.376V7.354
		c0-0.233,0.077-0.377,0.375-0.377h0.818V2.022h-0.792c-0.298,0-0.376-0.143-0.376-0.376V0.596c0-0.233,0.078-0.376,0.376-0.376
		h3.606c0.298,0,0.375,0.143,0.375,0.376v1.051c0,0.233-0.077,0.376-0.375,0.376h-0.779v4.954h0.817
		C246.941,6.977,247.02,7.12,247.02,7.354z"/>
	<path fill="#F29100" d="M255.732,0.596l-2.775,7.77c-0.155,0.337-0.246,0.389-0.531,0.389h-1.245c-0.286,0-0.376-0.052-0.532-0.389
		l-2.788-7.77c-0.065-0.169-0.013-0.376,0.233-0.376h1.439c0.338,0,0.428,0.104,0.531,0.415l1.765,5.369l1.751-5.369
		c0.104-0.312,0.194-0.415,0.545-0.415h1.375C255.746,0.22,255.798,0.427,255.732,0.596z"/>
	<path fill="#F29100" d="M263.641,6.018c0,2.049-1.945,2.931-3.489,2.931s-3.463-0.882-3.463-2.931V2.956
		c0-2.049,1.919-2.931,3.463-2.931s3.489,0.882,3.489,2.931V6.018z M261.604,3.138c0-0.83-0.596-1.31-1.452-1.31
		c-0.843,0-1.439,0.479-1.439,1.31v2.698c0,0.83,0.597,1.31,1.439,1.31c0.856,0,1.452-0.479,1.452-1.31V3.138z"/>
</g>
</svg>
